<svg id="_172626_user_male_icon" data-name="172626_user_male_icon" xmlns="http://www.w3.org/2000/svg" width="38" height="38" viewBox="0 0 38 38">
  <circle id="Ellipse_208" data-name="Ellipse 208" cx="18" cy="18" r="18" transform="translate(1 1)" fill="none" stroke="#b2b2b4" stroke-linecap="round" stroke-width="2"/>
  <rect id="Rectangle_14704" data-name="Rectangle 14704" width="38" height="38" fill="none"/>
  <path id="Path_7451" data-name="Path 7451" d="M23.047,27.678c-.1-1.162-.061-1.973-.061-3.035a6.1,6.1,0,0,0,1.528-3.524c.388-.034,1-.438,1.18-2.032a1.532,1.532,0,0,0-.522-1.489c.632-2.025,1.944-8.291-2.427-8.938-.45-.842-1.6-1.268-3.1-1.268-5.99.118-6.712,4.821-5.4,10.207a1.535,1.535,0,0,0-.522,1.489c.18,1.594.792,2,1.18,2.032a6.082,6.082,0,0,0,1.564,3.524c0,1.062.037,1.873-.062,3.035-.853,2.444-5.234,2.635-7.762,4.992A16.02,16.02,0,0,0,20.09,37.534c4.519,0,9.831-3.8,10.715-4.84C28.293,30.316,23.9,30.131,23.047,27.678Z" transform="translate(-0.571)" fill="#b2b2b4"/>
</svg>
