<svg xmlns="http://www.w3.org/2000/svg" width="23.152" height="23.152" viewBox="0 0 23.152 23.152">
  <path id="_1856380_circled_facebook_fb_media_network_icon" data-name="1856380_circled_facebook_fb_media_network_icon" d="M15.416,3.84A11.576,11.576,0,1,0,26.992,15.416,11.576,11.576,0,0,0,15.416,3.84Zm3.8,12.221c-.465-.008-.89.006-1.43-.018-.088,0-1.5.017-1.491.043a13.234,13.234,0,0,1-.036,1.924c.005.369.114,3.706.064,4.937l-2.789.026c-.012-1.048.04-2.126-.006-3.509-.009-.284-.019-3.275-.052-3.433l-1.809.012s-.008-1.1-.008-1.477v-1.1s1.439-.08,1.852-.116c0,0,.042-1.4.1-1.854a3.293,3.293,0,0,1,.377-1.5,3.508,3.508,0,0,1,2.133-1.8c.388-.085,2.944-.587,3.039-.174l-.058,2.49a3.478,3.478,0,0,0-2.238.456,1.186,1.186,0,0,0-.544,1.022c-.024.281-.029,1.419-.029,1.419a7.116,7.116,0,0,0,1.332,0,14.5,14.5,0,0,1,1.623.087C19.24,14.248,19.209,15.987,19.212,16.061Z" transform="translate(-3.84 -3.84)" fill="#fff"/>
</svg>
