<svg xmlns="http://www.w3.org/2000/svg" width="22.15" height="22.15" viewBox="0 0 22.15 22.15">
  <path id="_1856389_circled_media_network_social_social_media_icon_1_" data-name="1856389_circled_media_network_social_social media_icon (1)" d="M14.915,3.84A11.075,11.075,0,1,0,25.99,14.915,11.075,11.075,0,0,0,14.915,3.84Zm5.731,8.193a3.231,3.231,0,0,1-.745.67,2.012,2.012,0,0,1-.049.776,8.091,8.091,0,0,1-.1.856c-.091.287-.118.585-.214.872a4.334,4.334,0,0,1-.5.965c-.166.249-.28.515-.439.762a5.757,5.757,0,0,1-.651.7,6.347,6.347,0,0,1-1.184.935,7.376,7.376,0,0,1-1.118.5,3.086,3.086,0,0,1-.486.164,2.71,2.71,0,0,1-.545.128l-.28.048c-.113.01-.4-.011-.545,0s-.289-.032-.439-.031a8.355,8.355,0,0,1-1.1-.059,4.464,4.464,0,0,1-1.884-.739c-.094-.067-.166-.162-.259-.231a2.922,2.922,0,0,0,1.755-.125,4.97,4.97,0,0,0,.875-.369c.2-.141.432-.292.634-.406a3.478,3.478,0,0,1-1.323-.4,1.842,1.842,0,0,1-.76-1.185,7.938,7.938,0,0,0,.946-.006,2.082,2.082,0,0,1-.638-.3,3.144,3.144,0,0,1-.688-.548,2,2,0,0,1-.352-1.369,2.36,2.36,0,0,1,.422.154,2.91,2.91,0,0,1,.473.11c-.478-.155-.724-.918-.847-1.344a4.387,4.387,0,0,1,.171-1.645c.373.283.646.71,1.02.968.217.149.464.314.673.463.107.075.187.11.3.191a1.954,1.954,0,0,0,.343.167,4.219,4.219,0,0,0,.9.308,7.229,7.229,0,0,1,1.043.19l.389.047a2.933,2.933,0,0,1,.082-1.432,2.134,2.134,0,0,1,1.129-1.157,2.322,2.322,0,0,1,1.592-.121,5.478,5.478,0,0,1,.682.313c.2.111.3.367.517.339a1.969,1.969,0,0,0,1.215-.63,1.7,1.7,0,0,1-.81,1.315A9.414,9.414,0,0,0,21,11.58,1.506,1.506,0,0,1,20.646,12.033Z" transform="translate(-3.84 -3.84)" fill="#a0a0a0"/>
</svg>
