<svg xmlns="http://www.w3.org/2000/svg" width="23.152" height="23.152" viewBox="0 0 23.152 23.152">
  <path id="_1856389_circled_media_network_social_social_media_icon_1_" data-name="1856389_circled_media_network_social_social media_icon (1)" d="M15.416,3.84A11.576,11.576,0,1,0,26.992,15.416,11.576,11.576,0,0,0,15.416,3.84Zm5.99,8.564a3.378,3.378,0,0,1-.779.7,2.1,2.1,0,0,1-.052.811,8.457,8.457,0,0,1-.1.9c-.1.3-.123.612-.224.911a4.531,4.531,0,0,1-.522,1.009c-.173.261-.292.538-.459.8a6.017,6.017,0,0,1-.68.734,6.634,6.634,0,0,1-1.237.977,7.709,7.709,0,0,1-1.168.524,3.226,3.226,0,0,1-.508.171,2.833,2.833,0,0,1-.57.134l-.293.05c-.119.011-.416-.012-.57,0s-.3-.033-.459-.033a8.732,8.732,0,0,1-1.153-.062,4.666,4.666,0,0,1-1.97-.772c-.1-.07-.173-.169-.271-.241a3.054,3.054,0,0,0,1.834-.13,5.194,5.194,0,0,0,.914-.385c.208-.147.451-.3.663-.424a3.635,3.635,0,0,1-1.383-.423,1.925,1.925,0,0,1-.794-1.239,8.3,8.3,0,0,0,.989-.006,2.176,2.176,0,0,1-.667-.318,3.286,3.286,0,0,1-.719-.573,2.087,2.087,0,0,1-.368-1.431,2.467,2.467,0,0,1,.441.161,3.041,3.041,0,0,1,.495.115c-.5-.163-.757-.96-.886-1.4a4.585,4.585,0,0,1,.179-1.72c.389.3.675.742,1.067,1.012.227.156.485.329.7.484.111.078.2.115.309.2a2.042,2.042,0,0,0,.359.175,4.41,4.41,0,0,0,.944.322,7.556,7.556,0,0,1,1.091.2l.407.049a3.065,3.065,0,0,1,.085-1.5,2.23,2.23,0,0,1,1.18-1.209,2.427,2.427,0,0,1,1.664-.127,5.725,5.725,0,0,1,.713.327c.208.116.31.384.54.354a2.058,2.058,0,0,0,1.27-.658,1.773,1.773,0,0,1-.846,1.375,9.84,9.84,0,0,0,1.2-.3A1.574,1.574,0,0,1,21.407,12.4Z" transform="translate(-3.84 -3.84)" fill="#fff"/>
</svg>
