<svg xmlns="http://www.w3.org/2000/svg" width="22.15" height="22.15" viewBox="0 0 22.15 22.15">
  <path id="_1856380_circled_facebook_fb_media_network_icon" data-name="1856380_circled_facebook_fb_media_network_icon" d="M14.915,3.84A11.075,11.075,0,1,0,25.99,14.915,11.075,11.075,0,0,0,14.915,3.84Zm3.632,11.692c-.445-.007-.851.006-1.369-.017-.084,0-1.431.016-1.427.041a12.661,12.661,0,0,1-.034,1.841c.005.353.109,3.546.061,4.724l-2.669.024c-.011-1,.038-2.034-.006-3.357-.009-.272-.018-3.134-.049-3.284l-1.731.012s-.007-1.056-.007-1.413V13.049s1.377-.076,1.772-.111c0,0,.04-1.34.1-1.774a3.15,3.15,0,0,1,.36-1.435,3.356,3.356,0,0,1,2.04-1.724c.371-.081,2.817-.562,2.908-.166l-.056,2.382a3.327,3.327,0,0,0-2.141.437,1.134,1.134,0,0,0-.52.978c-.023.269-.028,1.357-.028,1.357a6.808,6.808,0,0,0,1.274,0,13.876,13.876,0,0,1,1.553.083C18.573,13.8,18.544,15.461,18.547,15.532Z" transform="translate(-3.84 -3.84)" fill="#a0a0a0"/>
</svg>
