<svg id="_2639877_online_support_icon" data-name="2639877_online_support_icon" xmlns="http://www.w3.org/2000/svg" width="63.348" height="72.859" viewBox="0 0 63.348 72.859">
  <path id="Path_4338" data-name="Path 4338" d="M15,26v5.6A24.594,24.594,0,0,0,30.757,26Z" transform="translate(15.126 41.254)" fill="#322865"/>
  <path id="Path_4339" data-name="Path 4339" d="M5,16v5.6c0,7.006,5.6,8.407,5.6,8.407s5.6,16.814,22.418,16.814" transform="translate(-2.198 23.232)" fill="none" stroke="#322865" stroke-linecap="round" stroke-width="2"/>
  <path id="Path_4340" data-name="Path 4340" d="M64.546,44.034H56.29c0-17.486-8.256-25.22-8.256-25.22-8.256,19.616-35.777,5.6-35.777,25.22H4V32.825C4,13.209,20.512,2,34.273,2c11.008,0,13.76,5.6,13.76,5.6,11.008,0,16.512,14.011,16.512,25.22Z" transform="translate(-4 -2)" fill="#322865"/>
  <path id="Path_4341" data-name="Path 4341" d="M20.006,21H17.2a4.2,4.2,0,1,0,0,8.407h2.8a4.2,4.2,0,0,0,0-8.407Z" transform="translate(11.697 32.243)" fill="#322865"/>
  <path id="Path_4342" data-name="Path 4342" d="M16,35.616H30.011A11.21,11.21,0,0,0,41.22,24.407V16" transform="translate(16.523 23.232)" fill="none" stroke="#322865" stroke-linecap="round" stroke-width="2"/>
  <path id="Path_4343" data-name="Path 4343" d="M28.6,29.011H23V15h5.6a5.6,5.6,0,0,1,5.6,5.6v2.8A5.6,5.6,0,0,1,28.6,29.011Z" transform="translate(29.139 21.429)" fill="#322865"/>
</svg>
