<svg xmlns="http://www.w3.org/2000/svg" width="87.865" height="61.541" viewBox="0 0 87.865 61.541">
  <g id="_2639804_delivery_icon" data-name="2639804_delivery_icon" transform="translate(0.731)">
    <path id="Path_4344" data-name="Path 4344" d="M9,10v9.3l6.2,3.1" transform="translate(15.791 5.494)" fill="none" stroke="#322865" stroke-linecap="round" stroke-linejoin="round" stroke-width="2"/>
    <path id="Path_4345" data-name="Path 4345" d="M33.494,30.692V18.3a3.1,3.1,0,0,1,3.1-3.1h8.853L44.4,12.756A6.2,6.2,0,0,0,38.7,9H18V52.384h9.452a7.879,7.879,0,0,1,.27-4.109,7.658,7.658,0,0,1,5.386-4.952,7.76,7.76,0,0,1,9.684,7.512,7.986,7.986,0,0,1-.155,1.549h9.452V30.692Z" transform="translate(34.68 3.395)" fill="#322865"/>
    <ellipse id="Ellipse_107" data-name="Ellipse 107" cx="8.234" cy="6.469" rx="8.234" ry="6.469" transform="translate(61.433 47.602)" fill="none" stroke="#322865" stroke-width="2"/>
    <circle id="Ellipse_108" data-name="Ellipse 108" cx="6.469" cy="6.469" r="6.469" transform="translate(13.207 47.602)" fill="none" stroke="#322865" stroke-width="2"/>
    <line id="Line_81" data-name="Line 81" x2="3.529" transform="translate(82.605 52.307)" fill="none" stroke="#322865" stroke-linecap="round" stroke-width="2"/>
    <line id="Line_82" data-name="Line 82" x2="5.881" transform="translate(0.269 52.307)" fill="none" stroke="#322865" stroke-linecap="round" stroke-width="2"/>
    <path id="Path_4346" data-name="Path 4346" d="M47.483,5H7.2A6.2,6.2,0,0,0,1,11.2V60.78H13.55a7.879,7.879,0,0,1,.27-4.109,7.657,7.657,0,0,1,5.389-4.952A7.759,7.759,0,0,1,28.89,59.23a7.986,7.986,0,0,1-.155,1.549H53.681V11.2A6.2,6.2,0,0,0,47.483,5ZM25.791,45.285A15.494,15.494,0,1,1,41.285,29.791,15.5,15.5,0,0,1,25.791,45.285Z" transform="translate(-1 -5)" fill="#322865"/>
  </g>
</svg>
