<svg xmlns="http://www.w3.org/2000/svg" width="22.15" height="22.15" viewBox="0 0 22.15 22.15">
  <g id="_3225180_app_logo_media_popular_social_icon" data-name="3225180_app_logo_media_popular_social_icon" transform="translate(0)">
    <path id="Path_4383" data-name="Path 4383" d="M11.075,22.15h0A11.076,11.076,0,0,1,0,11.075H0A11.076,11.076,0,0,1,11.075,0h0A11.076,11.076,0,0,1,22.15,11.075h0A11.076,11.076,0,0,1,11.075,22.15Z" transform="translate(0)" fill="#a0a0a0"/>
    <path id="Path_4384" data-name="Path 4384" d="M182.336,267.634a1.849,1.849,0,0,0-1.294-1.321,52.429,52.429,0,0,0-11.439,0,1.849,1.849,0,0,0-1.294,1.321,21.175,21.175,0,0,0,0,7.192,1.849,1.849,0,0,0,1.294,1.321,52.425,52.425,0,0,0,11.439,0,1.849,1.849,0,0,0,1.294-1.321,21.326,21.326,0,0,0,0-7.192Zm-8.513,5.8v-4.412l3.825,2.206Z" transform="translate(-164.245 -260.155)" fill="#fff"/>
  </g>
</svg>
