<svg xmlns="http://www.w3.org/2000/svg" width="63.348" height="63.348" viewBox="0 0 63.348 63.348">
  <g id="_3669302_phone_ic_msg_perm_icon" data-name="3669302_phone_ic_msg_perm_icon" transform="translate(0)">
    <path id="Path_4347" data-name="Path 4347" d="M0,0H63.348V63.348H0Z" transform="translate(0)" fill="none"/>
    <path id="Path_4348" data-name="Path 4348" d="M50.512,38.729a29.806,29.806,0,0,1-9.347-1.492,2.627,2.627,0,0,0-2.658.641l-5.76,5.773A39.5,39.5,0,0,1,15.491,26.41l5.76-5.787a2.627,2.627,0,0,0,.641-2.658A29.806,29.806,0,0,1,20.4,8.618,2.609,2.609,0,0,0,17.783,6H8.618A2.618,2.618,0,0,0,6,8.618,44.508,44.508,0,0,0,50.512,53.13a2.609,2.609,0,0,0,2.618-2.618V41.348A2.609,2.609,0,0,0,50.512,38.729ZM29.565,6V32.183l7.855-7.855H53.13V6Z" transform="translate(2.109 2.109)" fill="#322865"/>
  </g>
</svg>
