<svg id="_3787425_telegram_logo_messanger_social_social_media_icon" data-name="3787425_telegram_logo_messanger_social_social media_icon" xmlns="http://www.w3.org/2000/svg" width="21.76" height="22.348" viewBox="0 0 21.76 22.348">
  <ellipse id="Ellipse_114" data-name="Ellipse 114" cx="10.88" cy="11.174" rx="10.88" ry="11.174" transform="translate(0)" fill="#a0a0a0"/>
  <g id="Group_1411" data-name="Group 1411" transform="translate(3.758 5.96)">
    <path id="Path_4380" data-name="Path 4380" d="M103.891,138.808l-1.967,9.923a.729.729,0,0,1-1.033.357l-4.542-3.483-1.653-.8-2.781-.934s-.426-.151-.469-.482.482-.508.482-.508l11.056-4.335S103.891,138.145,103.891,138.808Z" transform="translate(-91.442 -138.426)" fill="#fff"/>
    <path id="Path_4381" data-name="Path 4381" d="M168.3,193.954s-.133-.013-.3-.534-1-3.276-1-3.276l6.677-4.241s.387-.232.37,0c0,0,.069.043-.138.232s-5.244,4.723-5.244,4.723" transform="translate(-163.747 -183.76)" fill="#fff" opacity="0.88"/>
    <path id="Path_4382" data-name="Path 4382" d="M199.388,305.865l-1.8,1.64a.309.309,0,0,1-.293.039l.344-3.044" transform="translate(-192.743 -297.35)" fill="#fff" opacity="0.88"/>
  </g>
</svg>
