<svg id="_3787425_telegram_logo_messanger_social_social_media_icon" data-name="3787425_telegram_logo_messanger_social_social media_icon" xmlns="http://www.w3.org/2000/svg" width="22.744" height="23.359" viewBox="0 0 22.744 23.359">
  <ellipse id="Ellipse_114" data-name="Ellipse 114" cx="11.372" cy="11.68" rx="11.372" ry="11.68" transform="translate(0)" fill="#fff"/>
  <g id="Group_1411" data-name="Group 1411" transform="translate(3.928 6.229)">
    <path id="Path_4380" data-name="Path 4380" d="M104.454,138.825,102.4,149.2a.762.762,0,0,1-1.08.374l-4.748-3.641-1.728-.833-2.907-.977s-.446-.158-.491-.5.5-.531.5-.531l11.556-4.532S104.454,138.132,104.454,138.825Z" transform="translate(-91.442 -138.426)" fill="#322865"/>
    <path id="Path_4381" data-name="Path 4381" d="M168.359,194.323s-.14-.014-.311-.558S167,190.341,167,190.341l6.98-4.433s.4-.243.387,0c0,0,.072.045-.144.243s-5.481,4.937-5.481,4.937" transform="translate(-163.6 -183.668)" fill="#322865" opacity="0.88"/>
    <path id="Path_4382" data-name="Path 4382" d="M199.483,305.927l-1.877,1.715a.323.323,0,0,1-.306.041l.36-3.182" transform="translate(-192.536 -297.027)" fill="#322865" opacity="0.88"/>
  </g>
</svg>
