<svg id="_7503212_notification_bell_alert_icon" data-name="7503212_notification_bell_alert_icon" xmlns="http://www.w3.org/2000/svg" width="23.763" height="25.828" viewBox="0 0 23.763 25.828">
  <path id="Path_7453" data-name="Path 7453" d="M63.632,40.946a1.075,1.075,0,0,0-.4-.407l-1.189-.71a3.121,3.121,0,0,1-1.522-2.678v-6.4A8.6,8.6,0,0,0,54.316,22.5a.371.371,0,0,1-.271-.354,2.16,2.16,0,0,0-4.32,0,.372.372,0,0,1-.271.354,8.6,8.6,0,0,0-6.209,8.245v6.4a3.121,3.121,0,0,1-1.522,2.678l-1.189.71a1.093,1.093,0,0,0,.549,2.031h21.6a1.107,1.107,0,0,0,.931-.548,1.1,1.1,0,0,0,.016-1.076Z" transform="translate(-40 -20)" fill="#b2b2b4"/>
  <path id="Path_7454" data-name="Path 7454" d="M202.173,454.233a3.251,3.251,0,0,0,4.943-1.573h-6.13A3.261,3.261,0,0,0,202.173,454.233Z" transform="translate(-192.167 -429.002)" fill="#b2b2b4"/>
</svg>
