<svg xmlns="http://www.w3.org/2000/svg" width="105.064" height="108.341" viewBox="0 0 105.064 108.341">
  <path id="_8665236_circle_play_icon" data-name="8665236_circle_play_icon" d="M52.532,0C23.516,0,0,24.25,0,54.171s23.516,54.171,52.532,54.171,52.532-24.25,52.532-54.171S81.548,0,52.532,0ZM76.438,58.508,46.889,77.13a4.882,4.882,0,0,1-2.565.741A5.007,5.007,0,0,1,39.4,72.792V35.549a5.005,5.005,0,0,1,4.925-5.078,4.811,4.811,0,0,1,2.567.744L76.44,49.836a5.165,5.165,0,0,1,0,8.672Z" fill="#fff"/>
</svg>
