<svg xmlns="http://www.w3.org/2000/svg" width="65.329" height="76.597" viewBox="0 0 65.329 76.597">
  <g id="_x36_33_x2C__coin_x2C__hand_x2C__stack_x2C__dollar_x2C__income" transform="translate(0)">
    <g id="Group_1402" data-name="Group 1402" transform="translate(0 0)">
      <path id="Path_4337" data-name="Path 4337" d="M142.63,87.258a.863.863,0,0,0-.506.4.631.631,0,0,0-.011.576.813.813,0,0,0,.484.417,1.128,1.128,0,0,0,.7.013.871.871,0,0,0,.506-.4.64.64,0,0,0,.011-.58.857.857,0,0,0-.487-.416,1.119,1.119,0,0,0-.7-.009m-1.716-.031a2.116,2.116,0,0,1,1.232-.979,2.666,2.666,0,0,1,1.711.027,2.059,2.059,0,0,1,1.191,1.014,1.551,1.551,0,0,1-.032,1.409,2.1,2.1,0,0,1-1.235.979,2.659,2.659,0,0,1-1.708-.026,2.053,2.053,0,0,1-1.189-1.015A1.533,1.533,0,0,1,140.913,87.227Zm-29.037-.979a2.116,2.116,0,0,1,1.232.979,1.535,1.535,0,0,1,.03,1.409,2.053,2.053,0,0,1-1.189,1.015,2.659,2.659,0,0,1-1.708.026,2.11,2.11,0,0,1-1.234-.979,1.559,1.559,0,0,1-.032-1.409,2.059,2.059,0,0,1,1.192-1.014A2.664,2.664,0,0,1,111.876,86.248Zm.024,1.413a.872.872,0,0,0-.506-.4,1.129,1.129,0,0,0-.7.009.845.845,0,0,0-.484.416.632.632,0,0,0,.011.58.857.857,0,0,0,.506.4,1.122,1.122,0,0,0,.7-.013.825.825,0,0,0,.487-.417A.639.639,0,0,0,111.9,87.661Zm34.043-4.319h-.016l-.083-.009h0l-.086-.009h0l-.363-.031h0l-.1,0h0l-.1-.009-.1,0h0l-.105-.009h0l-.1,0h0l-.108,0v0l-.11,0-.113,0-.116,0,0,0-.113,0h0l-.121,0h0l-.121,0h0l-.124,0h0l-.123,0h0l-.124,0h0l-.126,0h0l-.129,0h0l-.132,0h0l-.129,0h0l-.134,0h0l-.135,0h-.14l-.137,0h0l-.134,0h-.143l0,0h-.14l-.143,0h-.293l-.143,0h-.151l-.145,0h-.455l-.148,0h-.925l-.153,0h-.471l-.153,0h-.161l-.151,0h-.32l-.153,0h0l-.154,0h-.161l-.151,0h-.005l-.151,0h-.005l-.15,0h-.005l-.151,0h-.134l-.121,0h0l-.123,0h-.006l-.121,0H136.8l-.121,0h-.005l-.118,0h-.005l-.121,0H136.3l-.118,0h-.005l-.118,0h-.005l-.118.009h-.006l-.118,0h0l-.115,0h-.005l-.118,0h-.006l-.115,0h0l-.118,0h0l-.116.009H135.2l-.113,0h-.005l-.113,0h-.006l-.113.009h-.005l-.113,0h0l-.113.009h-.005l-.11,0h0l-.113.009h0l-.113,0h0l-.11.009h0l-.11,0h0l-.108.009h0l-.107.009h0l-.105,0-.005,0-.1,0h-.005l-.1.009h0l-.105.009h0l-.1.009h0l-.1.009h0l-.1.009h0l-.1.009h0l-.1.009h0l-.1.009h0l-.1.009h0l-.094.009h0l-.091.009h0l-.092.009h0l-.092.009v0l-.089.009h0l-.086.009h0l-.086.009v0l-.086.009h0l-.08.009h0l-.08.013h0l-.078.009h0l-.078.013-.075.009h0l-.075.013-.073.013h0l-.072.009h0l-.07.013h0l-.067.013h0l-.067.013h0l-.064.009v0l-.062.009h0l-.062.013h0l-.059.013h0l-.056.013h0a2.506,2.506,0,0,0-1.485.771,1.7,1.7,0,0,0-.285.948l-.065.709c-.14,1.427-.371,3.779.1,4.337a4.983,4.983,0,0,0,2.458.882l.979.217a39.962,39.962,0,0,1,7.591,2.982,30.916,30.916,0,0,0,7.346,2.782l.019,0c.218.035.3.066.312.066a2.326,2.326,0,0,0,.07-.873c-.005-.8.167-2.335.358-4.08.379-3.42.847-7.682.333-8.271a2.023,2.023,0,0,0-.9-.514,8.445,8.445,0,0,0-1.727-.328h-.015Zm5.321-25.2c.721.833.635,1.931.07,3.141l-.011.027c-1.35,2.848-5.557,6.3-7.182,7.638l-.371.306a.766.766,0,0,1-.936,0,.48.48,0,0,1,0-.771l.371-.306c1.576-1.289,5.649-4.63,6.892-7.261l.011-.022c.549-1.174.468-2.189-.877-2.707h0l-.011,0-.013,0-.011,0-.011,0-.011,0h-.005l-.005,0-.011,0h-.011l-.011,0-.011,0-.014,0-.024-.009-.011,0h-.011l-.011,0-.013,0-.11-.031c-2.421-.674-5.945,1.559-9.108,4.448a34.358,34.358,0,0,0-7.042,8.661l-.11.253a20.932,20.932,0,0,0-1.122,5.763c-.159,1.9-.2,3.8-.21,5.3h.024l.04-.009.043,0,.027,0,.059-.009h.011l.072-.013h0l.07-.009h.022l.051-.009.038,0,.038,0,.056-.009h.019l.073-.009h.005l.075-.009h.016l.065-.009.03,0,.048,0,.051,0,.03,0,.08-.009.083-.009h.005l.076-.009h.027l.059-.009.043,0,.191-.013.019,0h.005l.086,0,.013,0,.072,0,.038,0,.054,0,.054,0,.032,0,.075,0h.016l.091-.009h.005l.086,0,.027,0,.064,0,.048,0h.046l.067-.009h.027l.091,0h0l.094-.009h.016l.081,0,.038,0h.059l.059-.009h.038l.081,0h.016l.1-.009h.005l.094,0h.027l.07,0,.054,0h.048l.073,0,.027,0,.094,0h.005l.1,0h.016l.086,0h.04l.062,0,.064,0h.038l.086,0h.016l.1,0h.008l.1,0,.027,0h.075l.054,0h.051l.078,0H136l.1,0h.005l.1,0h.021l.086,0h.108l.064,0h.04l.089,0h.019l.105,0h.008l.1,0h.108l.054,0h.134l.027,0h.108l.145,0h.011l.129,0h.145l.043,0h.161l.078,0h.143l.1,0h.188l.131,0h.162l.134,0h.288l.056,0h.654l.142,0h.7l.086,0h.616l.121,0h.18l.089,0h.266l.131,0h.129l.124,0h.143l.121,0h.021l.105,0h.126l.051,0h.073l.245.009h.121l.107,0h.011l.119,0h0l.116,0h.016l.1,0h.032l.081,0h.046l.07,0h.057l.054,0,.07,0h.038l.083,0h.027l.094,0h.011l.105,0,0,0,.1,0h.011l.385.022h.056l.22.018c1.253-6.052,4.059-8.142,7.029-10.358a18.672,18.672,0,0,0,5.608-5.768c1.3-2.215,1.926-8.4,1.638-13.858-.24-4.514-1.057-8.479-2.58-9.086l-.156-.058a2.252,2.252,0,0,0-2.015.288,5.379,5.379,0,0,0-1.576,1.781l-.272.5a22.457,22.457,0,0,0-1.746,6.3A21.433,21.433,0,0,0,151.264,58.138ZM122.8,77.21a20.955,20.955,0,0,0-1.119-5.763l-.113-.253c-1.635-3.491-11.029-14.535-16.15-13.109l-.108.031-.161.053-.011,0-.011,0-.011,0h-.005l-.005,0-.011,0-.011,0-.011,0-.013,0-.008,0h-.005l-.005,0-.011,0c-1.264.523-1.332,1.519-.8,2.671l.011.022c1.243,2.631,5.315,5.972,6.886,7.261l.377.306a.48.48,0,0,1,0,.771.766.766,0,0,1-.936,0l-.371-.306c-1.625-1.334-5.832-4.789-7.179-7.638l-.013-.027c-.565-1.21-.651-2.308.07-3.141a21.351,21.351,0,0,0-.116-6.193,20.327,20.327,0,0,0-2.015-6.8,5.482,5.482,0,0,0-1.55-1.763l-.03-.017a2.237,2.237,0,0,0-2.015-.283l-.151.053c-1.527.607-2.345,4.572-2.585,9.086-.438,8.3-.452,13.884,7.247,19.626,2.967,2.21,5.77,4.3,7.023,10.335,1.3-.08,3.088-.12,4.987-.12h.059c1.028,0,2.09.013,3.131.04a55.047,55.047,0,0,1,5.947.4C123,81.007,122.958,79.106,122.8,77.21Zm-9.043,5.941c-2.187.009-4.18.075-5.339.191a.924.924,0,0,1-.223-.013l-.1.009a8.371,8.371,0,0,0-1.762.332,2.038,2.038,0,0,0-.9.514c-.511.589-.043,4.846.334,8.262.194,1.754.363,3.292.358,4.089a2.41,2.41,0,0,0,.067.868c.016,0,.1-.026.317-.062,4.82-.789,9.781-4.55,14.953-5.768l.979-.217a4.992,4.992,0,0,0,2.461-.882c.468-.558.237-2.911.1-4.337l-.065-.709a1.739,1.739,0,0,0-.285-.948,2.523,2.523,0,0,0-1.485-.771,40.192,40.192,0,0,0-6.456-.518c-.882-.026-1.778-.035-2.652-.04h-.307Zm15.612,1.329h0M137.7,29.661a17.58,17.58,0,0,0-21.438-.027l-.032.026c-5.894,4.855-5.9,12.83,0,17.681a16.905,16.905,0,0,0,10.741,3.664c8.387,0,15.182-5.6,15.182-12.5A11.485,11.485,0,0,0,137.7,29.661Zm-3.293,2.716a12.18,12.18,0,0,0-14.88,0,7.638,7.638,0,0,0-.005,12.258,12.181,12.181,0,0,0,14.886,0,7.63,7.63,0,0,0,0-12.254Zm-7.44-3.628a13.2,13.2,0,0,1,8.371,2.858,8.587,8.587,0,0,1,0,13.8,13.694,13.694,0,0,1-16.745,0,8.585,8.585,0,0,1,0-13.791A13.166,13.166,0,0,1,126.969,28.749ZM132,34.361a8.236,8.236,0,0,0-10.065,0,5.166,5.166,0,0,0,0,8.293,8.247,8.247,0,0,0,10.033.027L132,42.65a5.158,5.158,0,0,0,0-8.289Zm-5.03-2.853a9.474,9.474,0,0,1,6.006,2.047,6.165,6.165,0,0,1,0,9.9l-.04.031a9.841,9.841,0,0,1-11.975-.031,6.161,6.161,0,0,1,0-9.893l.016-.013A9.483,9.483,0,0,1,126.969,31.508Zm.374,9.038a1.171,1.171,0,0,0,.627-.3.732.732,0,0,0,.242-.545.671.671,0,0,0-.2-.487,1.376,1.376,0,0,0-.664-.31Zm-.74-4.47a.96.96,0,0,0-.473.288.655.655,0,0,0-.175.443.61.61,0,0,0,.159.412,1.1,1.1,0,0,0,.489.31V36.076ZM113.417,57.722a.483.483,0,0,1-.089-.766.762.762,0,0,1,.928-.071c.03.018,10.738,7.336,12.024,11.049a19.233,19.233,0,0,1,.732,3.389,19.22,19.22,0,0,1,.729-3.389c1.288-3.713,11.994-11.031,12.027-11.049a.757.757,0,0,1,.925.071.484.484,0,0,1-.089.766c-.03.018-10.415,7.111-11.594,10.509-1.208,3.482-1.342,12.4-1.342,12.422h0v.04l0,0-.005.04h0v.013h0l-.014.036v0l-.008.022h0l-.005.013h0l-.011.026h0l-.013.022h0l-.005.013h0l-.024.036h0l-.008.009h0l-.008.009h0l-.027.036h0l-.019.017h0L127.5,81h0l-.008.009,0,0-.008.009h0l-.021.018h0l-.011.009h0l-.011,0,0,0h0l-.022.013h0l-.011.009h0l-.013.009h0l-.027.013h0l-.011,0h0l-.013.009h0l-.011,0h-.005l-.011,0h0l-.016.009h0l-.014,0h0l-.011,0h0l-.014,0h0l-.016,0h0l-.014,0h0l-.013,0h0l-.014,0h-.019l-.011,0h-.005l-.011,0H127.1l0,0h-.164l0,0h-.032l-.014,0h0l-.014,0h-.019l-.014,0h0l-.011,0h-.005l-.011,0h0l-.013,0h0l-.016,0h0l-.013,0h0l-.011,0h0l-.013-.009h0l-.016,0h0l-.011,0h0l-.013-.009h0l-.014,0h0l-.027-.013h0l-.014-.009h0l-.011-.009h-.005l-.022-.013h0v0l-.011,0h0l-.014-.009h0l-.022-.018h0l-.008-.009,0,0L126.526,81h0l-.008-.009h0l-.016-.017h0l-.027-.036h0l-.005-.009h0l-.011-.009h0l-.022-.036h0l-.008-.013h0l-.014-.022h0l-.011-.026h0l-.005-.013h0l-.011-.022v0l-.011-.036h0l0-.013h0l-.005-.04v-.026l0,0v-.013h0c0-.027-.134-8.94-1.342-12.422C123.833,64.832,113.45,57.74,113.417,57.722Zm-8.258,42.835a.555.555,0,1,1,0-1.09h34.9a.555.555,0,1,1,0,1.09Zm17.966,2.042a.553.553,0,1,1,0-1.085H151.4a.553.553,0,1,1,0,1.085Zm31.163,0a.553.553,0,1,1,0-1.085h3.534a.553.553,0,1,1,0,1.085ZM97.6,102.542a.555.555,0,1,1,0-1.09h13.4a.555.555,0,1,1,0,1.09ZM126.6,40.479V38.721a2.9,2.9,0,0,1-1.458-.709,1.594,1.594,0,0,1-.466-1.156A1.5,1.5,0,0,1,125.2,35.7a2.32,2.32,0,0,1,1.4-.536v-.412h.74v.412a2.456,2.456,0,0,1,1.3.456,1.691,1.691,0,0,1,.613,1.006l-1.3.137a.908.908,0,0,0-.616-.674v1.639a3.589,3.589,0,0,1,1.676.709,1.487,1.487,0,0,1,.447,1.112,1.686,1.686,0,0,1-.562,1.28,2.77,2.77,0,0,1-1.56.647v.784h-.74v-.775a2.667,2.667,0,0,1-1.428-.536,2.067,2.067,0,0,1-.7-1.272l1.323-.128a1.313,1.313,0,0,0,.307.576A1.4,1.4,0,0,0,126.6,40.479Z" transform="translate(-94.464 -26.002)" fill="#322865" fill-rule="evenodd"/>
    </g>
  </g>
</svg>
