<svg id="Component_8_60" data-name="Component 8 – 60" xmlns="http://www.w3.org/2000/svg" width="42.373" height="40.761" viewBox="0 0 42.373 40.761">
  <path id="cart-shopping" d="M5.388,0A1.351,1.351,0,0,1,6.712,1.095l.084.7H30.407a1.821,1.821,0,0,1,1.729,2.282L29.105,14.856a1.8,1.8,0,0,1-1.729,1.308H9.58l.516,2.694H27.388a1.347,1.347,0,0,1,0,2.694H8.929a1.34,1.34,0,0,1-1.274-1.094L4.273,2.694H1.347A1.347,1.347,0,0,1,1.347,0Zm1.8,26.041a2.694,2.694,0,1,1,2.694,2.694A2.695,2.695,0,0,1,7.184,26.041Zm21.551,0a2.694,2.694,0,1,1-2.694-2.694A2.695,2.695,0,0,1,28.735,26.041Z" transform="translate(0 12.026)" fill="#b2b2b4"/>
  <ellipse id="Ellipse_95" data-name="Ellipse 95" cx="11.148" cy="11.148" rx="11.148" ry="11.148" transform="translate(20.077 0.279)" fill="#322865"/>
  <text id="_2" data-name="2" transform="translate(31.214 14)" fill="#fff" font-size="11" font-family="Cairo-Regular, Cairo"><tspan x="-3" y="0">2</tspan></text>
</svg>
