<svg xmlns="http://www.w3.org/2000/svg" width="123.782" height="21.34" viewBox="0 0 123.782 21.34">
  <g id="Group_45990" data-name="Group 45990" transform="translate(0 0)">
    <path id="Path_4240" data-name="Path 4240" d="M231.75-153.622v.306a7,7,0,0,0,.514.551q2.529,2.2,5.069,4.391a.272.272,0,0,1,.1.314c-.306,1.287-.6,2.577-.9,3.866q-.351,1.509-.7,3.017a.562.562,0,0,0,.528.75.98.98,0,0,0,.442-.155q2.967-1.78,5.925-3.574a.333.333,0,0,1,.406-.01c1.99,1.209,3.986,2.407,5.978,3.612a.6.6,0,0,0,.731.018.6.6,0,0,0,.194-.686c-.529-2.258-1.05-4.519-1.583-6.776a.366.366,0,0,1,.141-.423q2.566-2.209,5.119-4.434a4.972,4.972,0,0,0,.417-.464v-.306a.676.676,0,0,0-.578-.43q-1.361-.108-2.721-.227c-1.444-.124-2.887-.254-4.33-.373a.272.272,0,0,1-.265-.2c-.425-1.02-.857-2.038-1.288-3.056q-.722-1.708-1.444-3.416a.586.586,0,0,0-.652-.428.629.629,0,0,0-.487.448q-1.354,3.217-2.712,6.433a.3.3,0,0,1-.3.222c-.5.031-1,.079-1.5.122-1.792.155-3.583.317-5.375.461A.767.767,0,0,0,231.75-153.622Z" transform="translate(-231.75 161.758)" fill="#ddd"/>
    <path id="Path_4890" data-name="Path 4890" d="M231.75-153.622v.306a7,7,0,0,0,.514.551q2.529,2.2,5.069,4.391a.272.272,0,0,1,.1.314c-.306,1.287-.6,2.577-.9,3.866q-.351,1.509-.7,3.017a.562.562,0,0,0,.528.75.98.98,0,0,0,.442-.155q2.967-1.78,5.925-3.574a.333.333,0,0,1,.406-.01c1.99,1.209,3.986,2.407,5.978,3.612a.6.6,0,0,0,.731.018.6.6,0,0,0,.194-.686c-.529-2.258-1.05-4.519-1.583-6.776a.366.366,0,0,1,.141-.423q2.566-2.209,5.119-4.434a4.972,4.972,0,0,0,.417-.464v-.306a.676.676,0,0,0-.578-.43q-1.361-.108-2.721-.227c-1.444-.124-2.887-.254-4.33-.373a.272.272,0,0,1-.265-.2c-.425-1.02-.857-2.038-1.288-3.056q-.722-1.708-1.444-3.416a.586.586,0,0,0-.652-.428.629.629,0,0,0-.487.448q-1.354,3.217-2.712,6.433a.3.3,0,0,1-.3.222c-.5.031-1,.079-1.5.122-1.792.155-3.583.317-5.375.461A.767.767,0,0,0,231.75-153.622Z" transform="translate(-205.75 161.758)" fill="#ffd503"/>
    <path id="Path_4892" data-name="Path 4892" d="M231.75-153.622v.306a7,7,0,0,0,.514.551q2.529,2.2,5.069,4.391a.272.272,0,0,1,.1.314c-.306,1.287-.6,2.577-.9,3.866q-.351,1.509-.7,3.017a.562.562,0,0,0,.528.75.98.98,0,0,0,.442-.155q2.967-1.78,5.925-3.574a.333.333,0,0,1,.406-.01c1.99,1.209,3.986,2.407,5.978,3.612a.6.6,0,0,0,.731.018.6.6,0,0,0,.194-.686c-.529-2.258-1.05-4.519-1.583-6.776a.366.366,0,0,1,.141-.423q2.566-2.209,5.119-4.434a4.972,4.972,0,0,0,.417-.464v-.306a.676.676,0,0,0-.578-.43q-1.361-.108-2.721-.227c-1.444-.124-2.887-.254-4.33-.373a.272.272,0,0,1-.265-.2c-.425-1.02-.857-2.038-1.288-3.056q-.722-1.708-1.444-3.416a.586.586,0,0,0-.652-.428.629.629,0,0,0-.487.448q-1.354,3.217-2.712,6.433a.3.3,0,0,1-.3.222c-.5.031-1,.079-1.5.122-1.792.155-3.583.317-5.375.461A.767.767,0,0,0,231.75-153.622Z" transform="translate(-155.05 161.758)" fill="#ffd503"/>
    <path id="Path_4891" data-name="Path 4891" d="M231.75-153.622v.306a7,7,0,0,0,.514.551q2.529,2.2,5.069,4.391a.272.272,0,0,1,.1.314c-.306,1.287-.6,2.577-.9,3.866q-.351,1.509-.7,3.017a.562.562,0,0,0,.528.75.98.98,0,0,0,.442-.155q2.967-1.78,5.925-3.574a.333.333,0,0,1,.406-.01c1.99,1.209,3.986,2.407,5.978,3.612a.6.6,0,0,0,.731.018.6.6,0,0,0,.194-.686c-.529-2.258-1.05-4.519-1.583-6.776a.366.366,0,0,1,.141-.423q2.566-2.209,5.119-4.434a4.972,4.972,0,0,0,.417-.464v-.306a.676.676,0,0,0-.578-.43q-1.361-.108-2.721-.227c-1.444-.124-2.887-.254-4.33-.373a.272.272,0,0,1-.265-.2c-.425-1.02-.857-2.038-1.288-3.056q-.722-1.708-1.444-3.416a.586.586,0,0,0-.652-.428.629.629,0,0,0-.487.448q-1.354,3.217-2.712,6.433a.3.3,0,0,1-.3.222c-.5.031-1,.079-1.5.122-1.792.155-3.583.317-5.375.461A.767.767,0,0,0,231.75-153.622Z" transform="translate(-181.05 161.758)" fill="#ffd503"/>
    <path id="Path_4893" data-name="Path 4893" d="M231.75-153.622v.306a7,7,0,0,0,.514.551q2.529,2.2,5.069,4.391a.272.272,0,0,1,.1.314c-.306,1.287-.6,2.577-.9,3.866q-.351,1.509-.7,3.017a.562.562,0,0,0,.528.75.98.98,0,0,0,.442-.155q2.967-1.78,5.925-3.574a.333.333,0,0,1,.406-.01c1.99,1.209,3.986,2.407,5.978,3.612a.6.6,0,0,0,.731.018.6.6,0,0,0,.194-.686c-.529-2.258-1.05-4.519-1.583-6.776a.366.366,0,0,1,.141-.423q2.566-2.209,5.119-4.434a4.972,4.972,0,0,0,.417-.464v-.306a.676.676,0,0,0-.578-.43q-1.361-.108-2.721-.227c-1.444-.124-2.887-.254-4.33-.373a.272.272,0,0,1-.265-.2c-.425-1.02-.857-2.038-1.288-3.056q-.722-1.708-1.444-3.416a.586.586,0,0,0-.652-.428.629.629,0,0,0-.487.448q-1.354,3.217-2.712,6.433a.3.3,0,0,1-.3.222c-.5.031-1,.079-1.5.122-1.792.155-3.583.317-5.375.461A.767.767,0,0,0,231.75-153.622Z" transform="translate(-130.35 161.758)" fill="#ffd503"/>
  </g>
</svg>
