<svg xmlns="http://www.w3.org/2000/svg" width="65.153" height="65.153" viewBox="0 0 65.153 65.153">
  <g id="Money_asset" transform="translate(0)">
    <path id="Path_4335" data-name="Path 4335" d="M14.522,14.272c6.522-.5,9.992,1.575,11.353,2.7a26.084,26.084,0,0,0,10.433,2.237,24.144,24.144,0,0,0,10.666-2.476c1.52-1.14,4.953-2.932,11.059-2.465a2.161,2.161,0,0,0,2.409-1.786,2.052,2.052,0,0,0-2.017-2.134,21.714,21.714,0,0,0-13.081,2.574L47.759,6.2A2.509,2.509,0,0,0,47.3,3.737,3.267,3.267,0,0,0,44.78,2.609H27.787a3.256,3.256,0,0,0-2.544,1.154,2.5,2.5,0,0,0-.41,2.505l2.624,6.808c-2.489-1.553-6.768-3.236-13.314-2.726a2.054,2.054,0,0,0-2.023,2.128,2.159,2.159,0,0,0,2.4,1.792Z" transform="translate(-3.896 -2.609)" fill="#322865"/>
    <path id="Path_4336" data-name="Path 4336" d="M68.88,55.168l-3.868-7.639a12.56,12.56,0,0,1-1.353-5.956c.142-6.192-.937-20.471-13.253-24.363a25.768,25.768,0,0,1-13.324,3.758,28.081,28.081,0,0,1-13.621-3.634c-11.972,4.049-13.016,18.115-12.873,24.24a12.575,12.575,0,0,1-1.364,5.956L5.367,55.168a7.547,7.547,0,0,0,.468,7.642,8.5,8.5,0,0,0,7.09,3.7H61.31a8.507,8.507,0,0,0,7.094-3.7,7.552,7.552,0,0,0,.476-7.645Zm-29.719-1.2h-.468v3.713a1.783,1.783,0,0,1-3.559,0V53.965h-5.2a1.685,1.685,0,1,1,0-3.365h9.23a2.8,2.8,0,1,0,0-5.586H35.02a6.689,6.689,0,0,1-6.869-6.494,6.689,6.689,0,0,1,6.869-6.494h.112V27.917a1.783,1.783,0,0,1,3.559,0v4.11h4.376a1.685,1.685,0,1,1,0,3.365H35.02a3.134,3.134,0,1,0,0,6.258h4.141a6.168,6.168,0,1,1,0,12.316Z" transform="translate(-4.546 -1.355)" fill="#322865"/>
  </g>
</svg>
