<svg id="XMLID_1_" xmlns="http://www.w3.org/2000/svg" width="32.144" height="18.753" viewBox="0 0 32.144 18.753">
  <rect id="XMLID_248_" width="32.081" height="6.24" transform="translate(0.031 12.512)" fill="#010101"/>
  <rect id="XMLID_241_" width="32.081" height="6.24" transform="translate(0.031 6.272)" fill="#fff"/>
  <rect id="XMLID_234_" width="32.081" height="6.24" transform="translate(0.031 0.031)" fill="#bd1f34"/>
  <g id="XMLID_230_">
    <path id="XMLID_231_" d="M32.144,113H0v-6.3H32.144V113ZM.063,112.94H32.081v-6.171H.063v6.171Z" transform="translate(0 -106.7)" fill="#bd1f34"/>
  </g>
  <path id="XMLID_229_" d="M225.271,290.31a6.662,6.662,0,0,0,1.544-.144c.144-.025.144-.1.144-.2.144-.05.069-.22.169-.22-.1.025-.126-.17-.245-.144,0-.17-.17-.195-.32-.144a5.021,5.021,0,0,1-1.3.119,6.542,6.542,0,0,1-1.3-.119c-.144-.05-.32-.025-.32.144-.126-.025-.144.17-.245.144.1,0,.025.169.17.22,0,.094,0,.17.151.2a6.76,6.76,0,0,0,1.551.144Z" transform="translate(-209.375 -277.961)" fill="#fff"/>
  <g id="XMLID_225_" transform="translate(13.974 11.414)">
    <path id="XMLID_226_" d="M224.5,289.511a6.39,6.39,0,0,1-1.557-.151.2.2,0,0,1-.195-.22.215.215,0,0,1-.1-.163.089.089,0,0,0-.013-.038h-.013a.058.058,0,0,1-.044-.069.061.061,0,0,1,.063-.05.006.006,0,0,1,.006.006h.006c.013,0,.038-.031.05-.044a.242.242,0,0,1,.132-.1c.031-.144.207-.207.389-.144a4.305,4.305,0,0,0,1.017.107l.264.013a4.441,4.441,0,0,0,1.274-.119c.188-.063.364,0,.4.151a.229.229,0,0,1,.126.094c.013.013.031.044.044.044h.019a.068.068,0,0,1,.063.05.061.061,0,0,1-.044.069h-.019a.135.135,0,0,1-.006.038.26.26,0,0,1-.1.163.2.2,0,0,1-.195.22,6.932,6.932,0,0,1-1.563.144Zm-1.752-.6a.116.116,0,0,1,.013.044c.013.05.019.082.063.094a.06.06,0,0,1,.044.056c0,.094,0,.119.1.138a6.253,6.253,0,0,0,1.532.144,6.483,6.483,0,0,0,1.526-.144c.1-.019.1-.044.1-.138a.06.06,0,0,1,.044-.056c.044-.013.05-.044.063-.094.006-.013.006-.031.013-.044-.019-.019-.031-.038-.044-.05-.025-.038-.044-.056-.063-.056a.084.084,0,0,1-.056-.013.077.077,0,0,1-.025-.05c0-.025,0-.107-.126-.107a.356.356,0,0,0-.113.019,4.712,4.712,0,0,1-1.318.126l-.27-.013a4.3,4.3,0,0,1-1.048-.113.356.356,0,0,0-.113-.019c-.126,0-.126.082-.126.107a.057.057,0,0,1-.025.05.049.049,0,0,1-.05.013c-.031,0-.05.019-.075.056-.013.013-.025.031-.044.05Z" transform="translate(-222.581 -288.513)" fill="#f0c726"/>
  </g>
  <path id="XMLID_224_" d="M230.438,293.6c-.05,0-.05.025,0,.025a.013.013,0,1,0,0-.025Z" transform="translate(-215.935 -281.866)" fill="#f4d135"/>
  <g id="XMLID_222_" transform="translate(14.433 11.709)">
    <path id="XMLID_223_" d="M229.969,293.288c-.063,0-.069-.038-.069-.044,0-.025.044-.044.069-.044a.072.072,0,0,1,.05.044c-.006.013-.031.044-.05.044Z" transform="translate(-229.9 -293.2)" fill="#f0c726"/>
  </g>
  <path id="XMLID_221_" d="M230.719,292.1c-.025,0-.025.05,0,.05.044,0,.044-.05,0-.05Z" transform="translate(-216.216 -280.46)" fill="#f4d135"/>
  <g id="XMLID_219_" transform="translate(14.452 11.608)">
    <path id="XMLID_220_" d="M230.25,291.713c-.019,0-.05-.038-.05-.056a.091.091,0,0,1,.05-.056.058.058,0,1,1,0,.113Z" transform="translate(-230.2 -291.6)" fill="#f0c726"/>
  </g>
  <path id="XMLID_218_" d="M230.719,297.9c-.025,0-.025.05,0,.05s.019-.05,0-.05Z" transform="translate(-216.216 -285.896)" fill="#f4d135"/>
  <g id="XMLID_216_" transform="translate(14.452 11.972)">
    <path id="XMLID_217_" d="M230.25,297.513c-.019,0-.05-.038-.05-.057a.091.091,0,0,1,.05-.056c.019,0,.05.038.05.056s-.031.057-.05.057Z" transform="translate(-230.2 -297.4)" fill="#f0c726"/>
  </g>
  <path id="XMLID_215_" d="M231.938,298.3c-.05,0-.05.05,0,.05.025,0,.025-.05,0-.05Z" transform="translate(-217.341 -286.271)" fill="#f4d135"/>
  <g id="XMLID_213_" transform="translate(14.527 11.997)">
    <path id="XMLID_214_" d="M231.469,297.913a.064.064,0,0,1-.069-.056c0-.031.038-.056.069-.056s.05.038.05.056a.06.06,0,0,1-.05.056Z" transform="translate(-231.4 -297.8)" fill="#f0c726"/>
  </g>
  <path id="XMLID_212_" d="M233.889,298.7c-.019,0-.019.05,0,.05.044,0,.044-.05,0-.05Z" transform="translate(-219.192 -286.646)" fill="#f4d135"/>
  <g id="XMLID_210_" transform="translate(14.647 12.023)">
    <path id="XMLID_211_" d="M233.35,298.313c-.019,0-.05-.038-.05-.056s.031-.056.05-.056a.058.058,0,1,1,0,.113Z" transform="translate(-233.3 -298.2)" fill="#f0c726"/>
  </g>
  <path id="XMLID_209_" d="M257.919,294.8c-.025,0-.025.05,0,.05s.025-.05,0-.05Z" transform="translate(-241.709 -282.991)" fill="#f4d135"/>
  <g id="XMLID_207_" transform="translate(16.16 11.778)">
    <path id="XMLID_208_" d="M257.45,294.413c-.019,0-.05-.038-.05-.057s.031-.056.05-.056.05.038.05.056-.031.057-.05.057Z" transform="translate(-257.4 -294.3)" fill="#f0c726"/>
  </g>
  <path id="XMLID_206_" d="M258.038,296.4c-.05,0-.05.025,0,.025.025-.006.025-.025,0-.025Z" transform="translate(-241.803 -284.49)" fill="#f4d135"/>
  <g id="XMLID_204_" transform="translate(16.197 11.91)">
    <path id="XMLID_205_" d="M258.038,296.4c-.05,0-.05.025,0,.025C258.063,296.419,258.063,296.4,258.038,296.4Z" transform="translate(-258 -296.4)" fill="none"/>
  </g>
  <path id="XMLID_203_" d="M259.519,300.2c-.025,0-.025.05,0,.05s.025-.05,0-.05Z" transform="translate(-243.208 -288.052)" fill="#f4d135"/>
  <g id="XMLID_201_" transform="translate(16.26 12.123)">
    <path id="XMLID_202_" d="M259.05,299.913c-.019,0-.05-.044-.05-.057s.031-.056.05-.056.05.044.05.056-.031.057-.05.057Z" transform="translate(-259 -299.8)" fill="#f0c726"/>
  </g>
  <path id="XMLID_200_" d="M260.838,300.2c-.05,0-.05.05,0,.05.019.006.019-.05,0-.05Z" transform="translate(-244.427 -288.052)" fill="#f4d135"/>
  <g id="XMLID_198_" transform="translate(16.336 12.123)">
    <path id="XMLID_199_" d="M260.275,299.913c-.05,0-.075-.031-.075-.057s.025-.056.075-.056c.019,0,.05.044.05.056a.06.06,0,0,1-.05.057Z" transform="translate(-260.2 -299.8)" fill="#f0c726"/>
  </g>
  <path id="XMLID_197_" d="M276.738,297.1c-.05,0-.05.025,0,.025.031.006.031-.025,0-.025Z" transform="translate(-259.329 -285.147)" fill="#f4d135"/>
  <g id="XMLID_195_" transform="translate(17.34 11.928)">
    <path id="XMLID_196_" d="M276.269,296.788c-.063,0-.069-.038-.069-.044,0-.025.044-.044.069-.044s.05.025.05.044-.031.044-.05.044Z" transform="translate(-276.2 -296.7)" fill="#f0c726"/>
  </g>
  <g id="XMLID_193_" transform="translate(14.49 11.602)">
    <path id="XMLID_194_" d="M231.076,291.946a.183.183,0,0,1-.057-.013.162.162,0,0,1-.075-.031.189.189,0,0,1-.075-.019c-.025,0-.069-.038-.069-.107a1.128,1.128,0,0,0,.057-.188l.019-.063a.034.034,0,0,1,.038-.025.039.039,0,0,1,.025.038l-.019.063a.727.727,0,0,1-.063.188.116.116,0,0,0,.019.025.194.194,0,0,0,.05.013.116.116,0,0,1,.013-.044c.006-.05.013-.069.031-.075a.1.1,0,0,1,.019.038l.019.013a.062.062,0,0,1-.006.025v.006a.39.39,0,0,1-.019.063c.006,0,.013.006.044.013s.038.013.044.006.025-.031.031-.082l.013.006-.031-.038a.052.052,0,0,1,.05-.019.107.107,0,0,1,.038.063c-.013.056-.025.107-.069.132,0,.006-.013.013-.025.013Z" transform="translate(-230.8 -291.5)" fill="#f0c726"/>
  </g>
  <g id="XMLID_191_" transform="translate(14.446 11.803)">
    <path id="XMLID_192_" d="M230.226,294.888h-.006c-.075-.019-.119-.063-.119-.107,0-.025.019-.063.1-.082.019,0,.038.006.038.025a.028.028,0,0,1-.025.038c-.044.006-.05.019-.05.019s.025.025.069.038a.039.039,0,0,1,.025.038c-.006.019-.019.031-.031.031Z" transform="translate(-230.1 -294.7)" fill="#f0c726"/>
  </g>
  <g id="XMLID_189_" transform="translate(14.833 11.787)">
    <path id="XMLID_190_" d="M236.7,294.849c-.013,0-.038-.006-.044-.019-.006.013-.057,0-.057-.094a.119.119,0,0,1-.057-.019.3.3,0,0,1-.176.019.178.178,0,0,1-.063.056.034.034,0,1,1-.025-.063.084.084,0,0,0,.044-.038.118.118,0,0,1-.013-.05.067.067,0,0,1,0-.069c.057-.013.075.013.088.057a.107.107,0,0,1-.006.044.191.191,0,0,0,.1-.006.086.086,0,0,1-.013-.107.1.1,0,0,1,.119-.05.1.1,0,0,1,.057.1.107.107,0,0,1-.044.082.131.131,0,0,1,.038.025c.019.069.025.069.031.069h0c.013,0,.038-.044.038-.088v-.22a.032.032,0,0,1,.063,0v.22a.182.182,0,0,1-.075.157c0-.006,0-.006-.006-.006Z" transform="translate(-236.263 -294.45)" fill="#f0c726"/>
  </g>
  <g id="XMLID_187_" transform="translate(15.375 11.781)">
    <path id="XMLID_188_" d="M244.931,294.68a.03.03,0,0,1-.031-.031,1.356,1.356,0,0,1,.013-.144,1.054,1.054,0,0,0,.013-.126.032.032,0,0,1,.063,0,1.037,1.037,0,0,1-.013.132,1.149,1.149,0,0,0-.013.132c0,.025-.013.038-.031.038Z" transform="translate(-244.9 -294.35)" fill="#f0c726"/>
  </g>
  <g id="XMLID_183_" transform="translate(15.45 11.935)">
    <path id="XMLID_184_" d="M246.123,297.12a.033.033,0,0,1-.025-.013.03.03,0,0,1,.006-.044.179.179,0,0,0,.075-.094c-.013-.013-.025-.019-.038-.031a.068.068,0,0,1-.006-.075c.006-.013.031-.019.044-.019a.089.089,0,0,1,.063.069v.025h.019s.013-.006.013-.05a.038.038,0,0,1-.019-.038c0-.019.025-.05.044-.05s.038.025.044.044h.044a.275.275,0,0,0,.17.013c.057-.013.082.031.082.1a.164.164,0,0,1-.019.05c-.019.044-.031.075-.063.082a.109.109,0,0,1-.075-.038c-.006-.031-.006-.038-.05-.038h-.195a.235.235,0,0,1-.1.119c0-.013-.006-.013-.013-.013Zm.213-.188h.1c.088,0,.1.05.1.082l.025-.05a.177.177,0,0,0,.006-.05.31.31,0,0,1-.2-.013h-.031a.028.028,0,0,1,0,.031Z" transform="translate(-246.091 -296.8)" fill="#f0c726"/>
  </g>
  <g id="XMLID_181_" transform="translate(15.953 11.966)">
    <path id="XMLID_182_" d="M254.213,297.466a.023.023,0,0,1-.019-.006.1.1,0,0,0-.044,0c-.019,0-.05-.013-.05-.031s0-.031.019-.031v.031l.019-.038c.013,0,.025-.006.038-.006a.13.13,0,0,1,.019-.069.075.075,0,0,1,.082-.013.082.082,0,0,1,.05.075c-.006.057-.082.088-.113.088Z" transform="translate(-254.1 -297.296)" fill="#f0c726"/>
  </g>
  <g id="XMLID_179_" transform="translate(16.204 11.776)">
    <path id="XMLID_180_" d="M258.156,294.627c-.013,0-.019,0-.025-.006a.073.073,0,0,1-.031-.044.129.129,0,0,1,.088-.069.55.55,0,0,0-.019-.195.032.032,0,1,1,.063-.013.69.69,0,0,1,.019.226.432.432,0,0,1,.05.019c.025,0,.031-.013.038-.056-.013-.019-.031-.05-.025-.063a.065.065,0,0,1,.05-.025.072.072,0,0,1,.044.05v.038c-.006.094-.031.126-.1.126a.092.092,0,0,1-.082,0l-.006-.006a.106.106,0,0,1-.063.019Z" transform="translate(-258.1 -294.274)" fill="#f0c726"/>
  </g>
  <g id="XMLID_177_" transform="translate(16.521 11.913)">
    <path id="XMLID_178_" d="M263.185,296.746a.048.048,0,0,1-.025-.013.03.03,0,0,1,0-.044.32.32,0,0,0,.057-.082.1.1,0,0,1-.063-.088c0-.013,0-.057.031-.069s.063.013.094.05c.038.075-.019.182-.069.239-.006,0-.019.006-.025.006Z" transform="translate(-263.15 -296.448)" fill="#f0c726"/>
  </g>
  <g id="XMLID_175_" transform="translate(16.68 11.903)">
    <path id="XMLID_176_" d="M265.726,296.554a.035.035,0,0,1-.031-.019.032.032,0,0,1,.019-.044.062.062,0,0,0,.044-.031c-.05.006-.069-.019-.075-.044a.085.085,0,0,1,.05-.088.15.15,0,0,1,.056-.013c.025.013.038.038.044.082a.9.9,0,0,0,.3-.094.028.028,0,0,1,.044.013c.006.013.006.038-.013.044a.8.8,0,0,1-.333.1.124.124,0,0,1-.088.1c0-.006-.006-.006-.013-.006Z" transform="translate(-265.681 -296.296)" fill="#f0c726"/>
  </g>
  <g id="XMLID_173_" transform="translate(16.869 11.732)">
    <path id="XMLID_174_" d="M268.851,293.908a.079.079,0,0,1-.038-.006.327.327,0,0,1-.044-.094.08.08,0,0,0-.006.038.032.032,0,0,1-.063,0,.13.13,0,0,1,.05-.113.023.023,0,0,0-.006-.019l-.025-.1a.032.032,0,1,1,.063-.013l.025.1v.013a.193.193,0,0,1,.057.006.093.093,0,0,1,.063.082.079.079,0,0,1-.013.088.094.094,0,0,1-.063.019Z" transform="translate(-268.7 -293.574)" fill="#f0c726"/>
  </g>
  <g id="XMLID_171_" transform="translate(17.111 11.831)">
    <path id="XMLID_172_" d="M272.649,295.315a.084.084,0,0,1-.088-.057.088.088,0,0,1,.006-.056.14.14,0,0,1,.195-.025.073.073,0,0,1-.006.088.134.134,0,0,1-.107.05Z" transform="translate(-272.559 -295.149)" fill="#f0c726"/>
  </g>
  <g id="XMLID_169_" transform="translate(17.29 11.859)">
    <path id="XMLID_170_" d="M275.4,295.65a.361.361,0,0,0,.075-.05Z" transform="translate(-275.4 -295.6)" fill="none"/>
  </g>
  <g id="XMLID_167_" transform="translate(17.142 11.574)">
    <path id="XMLID_168_" d="M273.311,291.4a.053.053,0,0,1-.038-.013c-.057-.031-.082-.107-.082-.22,0-.025-.006-.038-.019-.044a.075.075,0,0,0-.069.019.031.031,0,0,1-.044-.044.129.129,0,0,1,.138-.031.114.114,0,0,1,.063.107c0,.1.025.151.05.163a.028.028,0,0,0,.031,0v-.006c.006-.013.044-.05.057-.044a.1.1,0,0,1,.031.063.2.2,0,0,1-.119.05Z" transform="translate(-273.05 -291.062)" fill="#f0c726"/>
  </g>
  <g id="XMLID_165_" transform="translate(15.036 11.928)">
    <path id="XMLID_166_" d="M239.5,296.7h0Z" transform="translate(-239.5 -296.7)" fill="none"/>
  </g>
  <g id="XMLID_163_" transform="translate(15.212 11.953)">
    <path id="XMLID_164_" d="M242.3,297.1h0Z" transform="translate(-242.3 -297.1)" fill="none"/>
  </g>
  <path id="XMLID_162_" d="M221.453,228.932l2.1,1.952-.151-3.553c-.025-.54-.49-.414-.829-.22a8.8,8.8,0,0,1-2.3,0c-.339-.195-.81-.32-.829.22l-.151,3.553Z" transform="translate(-205.532 -219.395)" fill="#fff"/>
  <g id="XMLID_158_" transform="translate(13.73 7.521)">
    <path id="XMLID_159_" d="M218.731,230.505c-.006,0-.006,0-.013-.006a.035.035,0,0,1-.019-.031l.151-3.553c.013-.345.207-.414.364-.414a1.158,1.158,0,0,1,.515.17,1.242,1.242,0,0,0,1.124.075,1.265,1.265,0,0,0,1.143-.069,1.187,1.187,0,0,1,.515-.17c.157,0,.345.075.364.414l.151,3.553a.035.035,0,0,1-.019.031.03.03,0,0,1-.038-.006l-2.084-1.934L218.75,230.5a.027.027,0,0,1-.019.006Zm.483-3.936c-.188,0-.289.119-.3.358l-.144,3.472,2.1-1.9a.03.03,0,0,1,.044,0l2.047,1.9-.144-3.472c-.019-.4-.333-.452-.779-.195a1.3,1.3,0,0,1-1.18.075,1.281,1.281,0,0,1-1.155-.075,1.087,1.087,0,0,0-.49-.163Z" transform="translate(-218.7 -226.5)" fill="#f0c726"/>
  </g>
  <path id="XMLID_157_" d="M243.7,211.2a.615.615,0,0,0,.32.069,1.028,1.028,0,0,1-.3-.829c.05-.4-.05-.615-.289-.659a1.464,1.464,0,0,0-.169-.025c-.075-.019-.132.05-.157.094-.075-.05-.138-.025-.207-.069-.075-.025-.2,0-.2.17l.05-.019a.457.457,0,0,1,.113.057.342.342,0,0,1,.182.257,1.081,1.081,0,0,1-.345,1.03.615.615,0,0,0,.32-.069.974.974,0,0,1-.119.144.449.449,0,0,0,.339-.195c.025.05.094.119.126.169.025-.05.094-.119.126-.169a.449.449,0,0,0,.339.195.63.63,0,0,1-.132-.151Z" transform="translate(-227.463 -203.28)" fill="#fff"/>
  <g id="XMLID_153_" transform="translate(15.149 6.441)">
    <path id="XMLID_154_" d="M241.488,210.97l.069-.069a.315.315,0,0,0,.044-.05.8.8,0,0,1-.226.025H241.3l.057-.05a1.048,1.048,0,0,0,.333-1,.28.28,0,0,0-.138-.213l-.038-.025c-.05-.025-.082-.044-.1-.05l-.075.038v-.044c0-.195.144-.239.239-.2a.158.158,0,0,0,.1.031.27.27,0,0,1,.088.025.181.181,0,0,1,.138-.088.9.9,0,0,1,.151.019.138.138,0,0,0,.05.006c.264.05.37.289.32.7a.974.974,0,0,0,.283.8l.082.057h-.094a.8.8,0,0,1-.226-.025.313.313,0,0,0,.044.05l.069.069-.094-.019a.5.5,0,0,1-.333-.17.349.349,0,0,0-.038.05.319.319,0,0,0-.057.082l-.025.05-.025-.05c-.013-.025-.038-.05-.057-.082s-.025-.031-.038-.05a.5.5,0,0,1-.333.17l-.094.019Zm.678-.3.025.044a.346.346,0,0,0,.226.157c-.019-.019-.031-.044-.056-.075l.038-.044a.509.509,0,0,0,.213.063,1.106,1.106,0,0,1-.239-.8c.044-.377-.038-.584-.264-.628-.019.013-.038-.006-.057-.013a.428.428,0,0,0-.113-.013.153.153,0,0,0-.126.082l-.019.031-.025-.019a.278.278,0,0,0-.094-.031.268.268,0,0,1-.113-.038c-.019-.006-.119-.038-.144.1h0a.232.232,0,0,1,.119.044l.057.038a.329.329,0,0,1,.163.251,1.116,1.116,0,0,1-.3,1,.588.588,0,0,0,.226-.063l.038.044c-.025.031-.038.057-.057.075a.346.346,0,0,0,.226-.157l.025-.044.025.05c.013.025.038.05.057.082s.025.031.038.05a.349.349,0,0,0,.038-.05.32.32,0,0,0,.057-.082l.031-.057Z" transform="translate(-241.3 -209.3)" fill="#f0c726"/>
  </g>
  <g id="XMLID_151_" transform="translate(16.078 7.424)">
    <path id="XMLID_152_" d="M256.276,225.5a.034.034,0,0,1-.031-.019,1.077,1.077,0,0,1-.144-.5.032.032,0,0,1,.063,0,1.035,1.035,0,0,0,.132.477.036.036,0,0,1-.013.044Z" transform="translate(-256.1 -224.95)" fill="#f0c726"/>
  </g>
  <g id="XMLID_149_" transform="translate(15.909 7.424)">
    <path id="XMLID_150_" d="M253.507,225.43a.033.033,0,0,1-.025-.013.9.9,0,0,1-.082-.439.032.032,0,0,1,.063,0,.849.849,0,0,0,.069.4.028.028,0,0,1-.013.044c0,.006-.006.006-.013.006Z" transform="translate(-253.4 -224.95)" fill="#f0c726"/>
  </g>
  <g id="XMLID_147_" transform="translate(15.5 7.418)">
    <path id="XMLID_148_" d="M246.928,225.406c-.006,0-.013,0-.013-.006a.027.027,0,0,1-.013-.044.972.972,0,0,0,.132-.477.032.032,0,0,1,.063,0,.989.989,0,0,1-.144.5.023.023,0,0,1-.025.025Z" transform="translate(-246.896 -224.85)" fill="#f0c726"/>
  </g>
  <g id="XMLID_145_" transform="translate(15.737 7.424)">
    <path id="XMLID_146_" d="M250.695,225.43a.023.023,0,0,1-.019-.006.042.042,0,0,1-.013-.044.849.849,0,0,0,.069-.4.032.032,0,0,1,.063,0,.864.864,0,0,1-.082.439c0,.006-.006.013-.019.013Z" transform="translate(-250.661 -224.95)" fill="#f0c726"/>
  </g>
  <path id="XMLID_144_" d="M242.9,212.308a.356.356,0,0,1,.144.057.318.318,0,0,1,.182.232c-.025-.075.025-.151.075-.126a.334.334,0,0,0-.4-.163Z" transform="translate(-227.651 -205.66)" fill="#f0c726"/>
  <g id="XMLID_140_" transform="translate(15.249 6.611)">
    <path id="XMLID_141_" d="M243.226,212.345a.014.014,0,0,1-.013-.013h0a.271.271,0,0,1-.006-.031h0a.315.315,0,0,0-.17-.195l-.025-.031-.006.013a.184.184,0,0,0-.107-.038.089.089,0,0,1,.094-.05.372.372,0,0,1,.326.195c0,.006-.006.006-.013.013s-.019.006-.025.006h0c-.038.031-.05.057-.044.082v.013a.023.023,0,0,1,.006.019q0,.009-.019.019Zm-.276-.308a.163.163,0,0,1,.063.025l.038.019a.374.374,0,0,1,.163.157c.006-.013.013-.019.019-.031a.078.078,0,0,1,.05-.025.35.35,0,0,0-.333-.144Z" transform="translate(-242.9 -212)" fill="#f0c726"/>
  </g>
  <path id="XMLID_139_" d="M247.39,264.8l.3,1.344-.094.1-.1-.075-.169-1.2.069,1.2-.094.126-.1-.126.069-1.2-.163,1.2-.1.075-.1-.1.3-1.344Z" transform="translate(-231.399 -254.874)" fill="#f0c726"/>
  <g id="XMLID_134_" transform="translate(15.482 9.907)">
    <path id="XMLID_135_" d="M247.014,266.057l-.119-.151.031-.578-.082.565-.113.094-.132-.1.289-1.369.22-.019.32,1.369-.107.126-.132-.082-.088-.59.031.565-.119.17Zm0-1.35-.069,1.18.069.082.075-.094-.075-1.168Zm.069-.182-.17.019-.27,1.325.088.069.063-.075.157-1.18.057.006.057-.006.17,1.2.088.056.063-.094-.3-1.318Z" transform="translate(-246.6 -264.5)" fill="#f0c726"/>
  </g>
  <path id="XMLID_133_" d="M219.689,231.2l-.144,3.453-.245.22.151-3.553a.705.705,0,0,1,.239-.119Z" transform="translate(-205.532 -223.384)" fill="#f0c726"/>
  <path id="XMLID_132_" d="M224.67,232.295l-.126,2.888-.245.251.151-3.334c.05.044.195.163.22.195Z" transform="translate(-210.218 -224.227)" fill="#f0c726"/>
  <path id="XMLID_131_" d="M230.1,236.544,230,238.955l-.2.195.126-2.75c.044.044.144.119.17.144Z" transform="translate(-215.373 -228.257)" fill="#f0c726"/>
  <path id="XMLID_130_" d="M234.789,239.475l-.094,2.053-.195.157.094-2.285a.624.624,0,0,0,.195.075Z" transform="translate(-219.778 -231.069)" fill="#f0c726"/>
  <path id="XMLID_129_" d="M239.37,240.6l-.069,1.714-.2.195.075-1.883c.05,0,.169,0,.195-.025Z" transform="translate(-224.089 -232.194)" fill="#f0c726"/>
  <path id="XMLID_128_" d="M280.8,231.2l.144,3.453.245.22-.151-3.553a.7.7,0,0,0-.239-.119Z" transform="translate(-263.171 -223.384)" fill="#f0c726"/>
  <path id="XMLID_127_" d="M276.1,232.2l.126,2.888.245.213-.151-3.3c-.044.05-.188.169-.22.2Z" transform="translate(-258.766 -224.134)" fill="#f0c726"/>
  <path id="XMLID_126_" d="M271.9,236.544l.1,2.411.195.157-.126-2.712c-.05.044-.144.119-.17.144Z" transform="translate(-254.83 -228.257)" fill="#f0c726"/>
  <path id="XMLID_125_" d="M267.2,239.475l.094,2.015.195.157-.094-2.248a.624.624,0,0,1-.195.075Z" transform="translate(-250.425 -231.069)" fill="#f0c726"/>
  <path id="XMLID_124_" d="M262.9,240.6l.069,1.714.2.195-.075-1.883c-.05,0-.169,0-.195-.025Z" transform="translate(-246.395 -232.194)" fill="#f0c726"/>
  <path id="XMLID_123_" d="M233.884,255.4l-.584,2.084.8.119.345-1.563Z" transform="translate(-218.653 -246.064)" fill="#fff"/>
  <g id="XMLID_119_" transform="translate(14.615 9.304)">
    <path id="XMLID_120_" d="M233.635,257.166h0l-.81-.126c-.006,0-.019-.006-.019-.013A.038.038,0,0,1,232.8,257l.584-2.084c0-.013.013-.019.025-.019a.047.047,0,0,1,.031.006l.565.64-.339,1.595c0,.019-.013.025-.031.025Zm-.766-.176.747.113.339-1.538-.521-.571-.565,2Z" transform="translate(-232.8 -254.9)" fill="#f0c726"/>
  </g>
  <path id="XMLID_118_" d="M255.265,255.4l.584,2.084-.8.119-.345-1.563Z" transform="translate(-238.71 -246.064)" fill="#fff"/>
  <g id="XMLID_114_" transform="translate(15.959 9.308)">
    <path id="XMLID_115_" d="M254.577,257.221a.042.042,0,0,1-.031-.025l-.345-1.563.571-.665a.028.028,0,0,1,.031-.006c.013,0,.019.013.025.019l.584,2.084a.038.038,0,0,1-.006.025c-.006.006-.013.013-.019.013l-.81.119Zm.207-2.172-.527.6.345,1.513.747-.113-.565-2Z" transform="translate(-254.2 -254.959)" fill="#f0c726"/>
  </g>
  <g id="XMLID_112_" transform="translate(15.009 9.948)">
    <path id="XMLID_113_" d="M239.165,265.454h0a.039.039,0,0,1-.031-.019l-.069-.169a.034.034,0,0,1,.063-.025l.05.126.188-.207a.031.031,0,0,1,.044.044l-.22.245c-.013,0-.019.006-.025.006Z" transform="translate(-239.062 -265.15)" fill="#f0c726"/>
  </g>
  <g id="XMLID_110_" transform="translate(15.275 9.649)">
    <path id="XMLID_111_" d="M243.407,261.147H243.4c-.013-.006-.025-.013-.025-.025l-.075-.684a.035.035,0,1,1,.069-.006l.069.6.195-.251c.013-.013.031-.019.044-.006a.031.031,0,0,1,.006.044l-.245.32c-.013,0-.019.006-.031.006Z" transform="translate(-243.3 -260.4)" fill="#f0c726"/>
  </g>
  <g id="XMLID_108_" transform="translate(15.492 10.137)">
    <path id="XMLID_109_" d="M246.941,268.592a.035.035,0,0,1-.031-.019l-.144-.364a.034.034,0,1,1,.063-.025l.144.364a.032.032,0,0,1-.019.044Z" transform="translate(-246.762 -268.162)" fill="#f0c726"/>
  </g>
  <g id="XMLID_106_" transform="translate(14.857 10.388)">
    <path id="XMLID_107_" d="M237.243,272.632h-.006c-.013,0-.019-.013-.025-.019l-.1-.32-.082.151c-.006.013-.019.025-.031.019a.035.035,0,0,1-.031-.019l-.082-.2-.182.163a.031.031,0,0,1-.044-.044l.213-.195a.028.028,0,0,1,.031-.006c.013,0,.019.006.025.019l.075.182.088-.163a.043.043,0,0,1,.031-.019.027.027,0,0,1,.025.025l.107.339.157-.163a.031.031,0,0,1,.044.044l-.2.2c.006.006,0,.006-.013.006Z" transform="translate(-236.65 -272.159)" fill="#f0c726"/>
  </g>
  <g id="XMLID_104_" transform="translate(14.808 10.683)">
    <path id="XMLID_105_" d="M236.581,277.486c-.013,0-.031-.013-.031-.025l-.063-.3-.151.195a.048.048,0,0,1-.031.013c-.013,0-.019-.013-.025-.019l-.075-.239-.132.169a.048.048,0,0,1-.031.013c-.013,0-.019-.006-.025-.019l-.151-.364a.034.034,0,1,1,.063-.025l.132.314.138-.176a.048.048,0,0,1,.031-.013c.013,0,.019.013.025.019l.075.239.157-.2c.006-.013.019-.013.031-.013s.019.013.025.025l.075.37a.028.028,0,0,1-.025.038Z" transform="translate(-235.863 -276.863)" fill="#f0c726"/>
  </g>
  <g id="XMLID_102_" transform="translate(14.797 11.15)">
    <path id="XMLID_103_" d="M236.225,284.727h-.006a.02.02,0,0,1-.019-.019l-.075-.226-.107.182c-.006.013-.019.025-.031.019s-.025-.006-.025-.019l-.1-.264-.113.151a.031.031,0,1,1-.05-.038l.144-.2c.006-.013.019-.013.031-.013s.019.006.025.019l.1.257.113-.188a.034.034,0,0,1,.031-.019.027.027,0,0,1,.025.025l.082.251.113-.094a.03.03,0,0,1,.044.006.027.027,0,0,1-.006.044l-.151.126c-.013-.006-.019,0-.025,0Z" transform="translate(-235.691 -284.3)" fill="#f0c726"/>
  </g>
  <g id="XMLID_100_" transform="translate(16.427 9.941)">
    <path id="XMLID_101_" d="M261.9,265.361a.047.047,0,0,1-.025-.013l-.22-.245a.031.031,0,0,1,.044-.044l.188.207.05-.126a.034.034,0,0,1,.063.025l-.069.169a.062.062,0,0,1-.031.025Z" transform="translate(-261.65 -265.05)" fill="#f0c726"/>
  </g>
  <g id="XMLID_98_" transform="translate(16.128 9.643)">
    <path id="XMLID_99_" d="M257.174,261.053a.033.033,0,0,1-.025-.013l-.251-.32a.03.03,0,0,1,.006-.044.031.031,0,0,1,.044.006l.195.251.063-.6a.035.035,0,0,1,.069.006l-.069.684a.027.027,0,0,1-.025.025.006.006,0,0,1-.006.006Z" transform="translate(-256.891 -260.3)" fill="#f0c726"/>
  </g>
  <g id="XMLID_96_" transform="translate(16.082 10.137)">
    <path id="XMLID_97_" d="M256.2,268.592h-.013a.032.032,0,0,1-.019-.044l.144-.364a.034.034,0,1,1,.063.025l-.144.364a.035.035,0,0,1-.031.019Z" transform="translate(-256.163 -268.162)" fill="#f0c726"/>
  </g>
  <g id="XMLID_94_" transform="translate(16.106 10.378)">
    <path id="XMLID_95_" d="M256.779,272.483a.048.048,0,0,1-.025-.013l-.195-.2a.031.031,0,0,1,.044-.044l.151.157.082-.333a.027.027,0,0,1,.025-.025.048.048,0,0,1,.031.013l.113.17.075-.188c.006-.013.013-.019.025-.019a.057.057,0,0,1,.031.006l.22.195a.031.031,0,1,1-.044.044l-.188-.163-.082.2c-.006.013-.013.019-.025.019a.048.048,0,0,1-.031-.013l-.107-.157-.082.32c0,.013-.013.019-.025.025.013.006.006.006.006.006Z" transform="translate(-256.55 -272)" fill="#f0c726"/>
  </g>
  <g id="XMLID_92_" transform="translate(16.227 10.683)">
    <path id="XMLID_93_" d="M258.507,277.486H258.5c-.019-.006-.031-.019-.025-.038l.075-.37a.027.027,0,0,1,.025-.025.023.023,0,0,1,.031.013l.157.2.075-.239c.006-.013.013-.019.025-.019s.025,0,.031.013l.138.176.132-.314a.034.034,0,0,1,.063.025l-.151.364c-.006.013-.013.019-.025.019a.048.048,0,0,1-.031-.013l-.132-.17-.075.239c-.006.013-.013.019-.025.019a.023.023,0,0,1-.031-.013l-.151-.188-.063.3a.072.072,0,0,1-.038.019Z" transform="translate(-258.474 -276.863)" fill="#f0c726"/>
  </g>
  <g id="XMLID_90_" transform="translate(16.279 11.144)">
    <path id="XMLID_91_" d="M259.474,284.633a.023.023,0,0,1-.019-.006l-.151-.126c-.013-.013-.019-.031-.006-.044a.031.031,0,0,1,.044-.006l.113.094.082-.251a.049.049,0,0,1,.025-.025.035.035,0,0,1,.031.019l.113.188.1-.257c.006-.013.013-.019.025-.019s.025,0,.031.013l.144.2a.031.031,0,1,1-.05.038l-.113-.151-.1.264c-.006.013-.013.019-.025.019s-.025-.006-.031-.019l-.107-.182-.075.226q-.009.019-.019.019a.022.022,0,0,0-.013.006Z" transform="translate(-259.291 -284.2)" fill="#f0c726"/>
  </g>
  <path id="XMLID_89_" d="M239.329,236.4a1.352,1.352,0,0,0,.929.27,1.171,1.171,0,1,1-1.858,0,1.385,1.385,0,0,0,.929-.27Z" transform="translate(-223.433 -228.257)" fill="#fff"/>
  <g id="XMLID_85_" transform="translate(14.942 8.118)">
    <path id="XMLID_86_" d="M238.954,238.2c-.006,0-.006,0-.013-.006a2.132,2.132,0,0,1-.942-1.9.337.337,0,0,1,.126-.019h0a1.29,1.29,0,0,0,.816-.27,1.408,1.408,0,0,0,.942.264,2.067,2.067,0,0,1-.917,1.927.019.019,0,0,1-.013.006Zm-.935-1.883a2.127,2.127,0,0,0,.935,1.833,2.082,2.082,0,0,0,.91-1.858c-.013.025-.044.025-.075.025a1.359,1.359,0,0,1-.848-.276,1.189,1.189,0,0,1-.816.276h0a.606.606,0,0,1-.107,0Z" transform="translate(-238 -236)" fill="#f0c726"/>
  </g>
  <path id="XMLID_84_" d="M240.454,239.859a2.025,2.025,0,0,0,.835-1.714,1.271,1.271,0,0,1-.835-.245,1.363,1.363,0,0,1-.854.245,2.086,2.086,0,0,0,.854,1.714Z" transform="translate(-224.558 -229.663)" fill="#f0c726"/>
  <g id="XMLID_80_" transform="translate(15.011 8.207)">
    <path id="XMLID_81_" d="M239.985,239.445a.023.023,0,0,1-.019-.006,2.137,2.137,0,0,1-.866-1.739.038.038,0,0,1,.006-.025c.006-.006.013-.006.025-.006a1.284,1.284,0,0,0,.835-.239.04.04,0,0,1,.038,0,1.253,1.253,0,0,0,.816.232.063.063,0,0,1,.019.006c.006.006.006.013.006.025a2.058,2.058,0,0,1-.848,1.739c-.006.013-.006.013-.013.013Zm-.829-1.72a2.089,2.089,0,0,0,.822,1.651,1.989,1.989,0,0,0,.8-1.651,1.312,1.312,0,0,1-.8-.232,1.294,1.294,0,0,1-.822.232Z" transform="translate(-239.1 -237.425)" fill="#f0c726"/>
  </g>
  <path id="XMLID_79_" d="M229.913,286.7a2.386,2.386,0,0,0,.59.025c.094,0,.169.169-.025.195a2.537,2.537,0,0,1-.584-.025c-.126-.025-.4-.069-.565-.119-.17-.075-.05-.22.05-.2a3.352,3.352,0,0,0,.534.126Z" transform="translate(-214.852 -275.281)" fill="#fff"/>
  <g id="XMLID_75_" transform="translate(14.356 11.257)">
    <path id="XMLID_76_" d="M229.766,286.421a2.561,2.561,0,0,1-.427-.038c-.119-.019-.389-.069-.565-.119-.113-.05-.113-.126-.107-.151a.149.149,0,0,1,.144-.113,3.946,3.946,0,0,0,.565.126,2.52,2.52,0,0,0,.584.025h0a.135.135,0,0,1,.132.119c.006.057-.031.119-.151.138a.8.8,0,0,1-.176.013Zm-.948-.352a.09.09,0,0,0-.088.063c-.006.038.038.063.063.075.17.044.439.094.559.119a2.143,2.143,0,0,0,.578.025c.063-.006.094-.031.094-.069a.068.068,0,0,0-.063-.063,2.679,2.679,0,0,1-.6-.025,3.439,3.439,0,0,1-.546-.126Z" transform="translate(-228.665 -286)" fill="#f0c726"/>
  </g>
  <path id="XMLID_74_" d="M256.2,286.7a2.347,2.347,0,0,1-.584.025c-.1,0-.17.169.019.195a2.537,2.537,0,0,0,.584-.025c.126-.025.4-.069.565-.119.17-.075.05-.22-.05-.2a3.351,3.351,0,0,1-.534.126Z" transform="translate(-239.471 -275.281)" fill="#fff"/>
  <g id="XMLID_70_" transform="translate(16.008 11.261)">
    <path id="XMLID_71_" d="M255.31,286.488a1.418,1.418,0,0,1-.169-.006c-.119-.019-.157-.082-.151-.138a.136.136,0,0,1,.132-.126,2.521,2.521,0,0,0,.584-.025,3.36,3.36,0,0,0,.534-.119.151.151,0,0,1,.176.107c.006.031.006.1-.1.151-.182.05-.452.1-.571.119a2.137,2.137,0,0,1-.433.038Zm-.195-.2a.068.068,0,0,0-.063.063c0,.031.031.057.094.069a2.45,2.45,0,0,0,.578-.025c.119-.019.389-.069.565-.119.025-.013.069-.038.063-.075a.088.088,0,0,0-.082-.063,3.755,3.755,0,0,1-.552.126,2.754,2.754,0,0,1-.6.025Z" transform="translate(-254.989 -286.072)" fill="#f0c726"/>
  </g>
  <path id="XMLID_69_" d="M227.427,286.963a.169.169,0,0,0-.17.245c.019-.05.126-.05.144-.094.025-.082-.025-.082.025-.151Z" transform="translate(-212.975 -275.643)" fill="#fff"/>
  <g id="XMLID_65_" transform="translate(14.231 11.288)">
    <path id="XMLID_66_" d="M226.731,286.808a.034.034,0,0,1-.031-.019.21.21,0,0,1,.013-.2.187.187,0,0,1,.157-.088.094.094,0,0,1,.044.019c.006.013.019.025.013.031-.019.031-.019.038-.013.05a.232.232,0,0,1-.006.088.151.151,0,0,1-.094.069.1.1,0,0,0-.056.031c-.006.013-.013.025-.025.019Zm.113-.239a.126.126,0,0,0-.075.05.163.163,0,0,0-.025.094l.044-.019a.1.1,0,0,0,.057-.031.177.177,0,0,0,.006-.05.093.093,0,0,1-.006-.044Z" transform="translate(-226.68 -286.5)" fill="#f0c726"/>
  </g>
  <path id="XMLID_64_" d="M238.338,289.608c0-.094.094-.082.094-.182,0-.05-.025-.126-.075-.126a.1.1,0,0,0-.094.094c-.019.1.075.119.075.214Z" transform="translate(-223.302 -277.836)" fill="#fff"/>
  <g id="XMLID_60_" transform="translate(14.924 11.426)">
    <path id="XMLID_61_" d="M237.821,289.077a.03.03,0,0,1-.031-.031.111.111,0,0,0-.038-.082.138.138,0,0,1-.038-.138.141.141,0,0,1,.132-.126c.075,0,.107.094.107.157a.134.134,0,0,1-.063.113.072.072,0,0,0-.038.069.029.029,0,0,1-.031.038Zm.025-.3a.067.067,0,0,0-.063.063.1.1,0,0,0,.025.088c.006.006.013.019.019.025l.025-.025a.072.072,0,0,0,.038-.069c0-.038-.025-.082-.044-.082Z" transform="translate(-237.708 -288.7)" fill="#f0c726"/>
  </g>
  <path id="XMLID_59_" d="M249.759,289.8c.144,0,.132.195.063.289,0-.069-.126-.094-.126-.144-.006-.075.107-.075.063-.144Z" transform="translate(-234.02 -278.305)" fill="#fff"/>
  <g id="XMLID_55_" transform="translate(15.632 11.458)">
    <path id="XMLID_56_" d="M249.163,289.558h-.013a.042.042,0,0,1-.025-.031c0-.019-.025-.044-.057-.063s-.069-.044-.069-.088a.113.113,0,0,1,.057-.094.071.071,0,0,1,.006-.05c.006-.013.025-.031.038-.031a.132.132,0,0,1,.126.075.3.3,0,0,1-.038.27.033.033,0,0,1-.025.013Zm-.013-.283a.1.1,0,0,1-.044.057c-.019.019-.031.025-.031.044s.025.025.038.031a.346.346,0,0,1,.057.044.21.21,0,0,0,.006-.151c-.013-.006-.019-.019-.025-.025Z" transform="translate(-249 -289.2)" fill="#f0c726"/>
  </g>
  <path id="XMLID_54_" d="M276.1,286.963a.169.169,0,0,1,.169.245c-.019-.05-.126-.05-.144-.094-.025-.082.025-.082-.025-.151Z" transform="translate(-258.766 -275.643)" fill="#fff"/>
  <g id="XMLID_50_" transform="translate(17.309 11.294)">
    <path id="XMLID_51_" d="M275.9,286.891c-.013-.006-.025-.006-.031-.019a.1.1,0,0,0-.056-.031.135.135,0,0,1-.088-.063.148.148,0,0,1-.006-.088c0-.019.006-.025-.013-.05a.047.047,0,0,1-.006-.031c.006-.013.013-.019.025-.019a.191.191,0,0,1,.195.088.21.21,0,0,1,.013.2.048.048,0,0,1-.031.013Zm-.119-.245a.069.069,0,0,1,0,.05.077.077,0,0,0,.006.05c.006.013.031.019.056.031l.044.019a.164.164,0,0,0-.025-.094.159.159,0,0,0-.082-.056Z" transform="translate(-275.7 -286.589)" fill="#f0c726"/>
  </g>
  <path id="XMLID_49_" d="M265.394,289.608c0-.094-.094-.082-.094-.182,0-.05.025-.126.075-.126a.1.1,0,0,1,.094.094c.019.1-.075.119-.075.214Z" transform="translate(-248.644 -277.836)" fill="#fff"/>
  <g id="XMLID_45_" transform="translate(16.618 11.432)">
    <path id="XMLID_46_" d="M264.832,289.17a.03.03,0,0,1-.031-.031c0-.031-.013-.044-.038-.069a.134.134,0,0,1-.063-.113c0-.063.031-.157.107-.157a.137.137,0,0,1,.132.132.175.175,0,0,1-.038.132.125.125,0,0,0-.038.082.029.029,0,0,1-.031.025Zm-.025-.3c-.019,0-.044.05-.044.088s.013.044.038.069c.006.006.019.013.025.025.006-.006.013-.019.019-.025.019-.025.038-.044.025-.082a.067.067,0,0,0-.063-.075Z" transform="translate(-264.7 -288.8)" fill="#f0c726"/>
  </g>
  <path id="XMLID_44_" d="M254.02,289.8c-.144,0-.132.195-.063.289,0-.069.126-.094.126-.144,0-.075-.113-.075-.063-.144Z" transform="translate(-237.967 -278.305)" fill="#fff"/>
  <g id="XMLID_40_" transform="translate(15.907 11.458)">
    <path id="XMLID_41_" d="M253.45,289.558a.033.033,0,0,1-.025-.013.278.278,0,0,1-.038-.27.132.132,0,0,1,.126-.075.035.035,0,0,1,.031.019.028.028,0,0,1,0,.031c.038.05.069.075.069.126s-.031.063-.069.088-.056.038-.056.063a.032.032,0,0,1-.025.031Zm.019-.283a.049.049,0,0,0-.025.025.211.211,0,0,0,.006.151.345.345,0,0,1,.057-.044c.013-.013.038-.025.038-.031s-.013-.025-.031-.044a.071.071,0,0,1-.044-.056Z" transform="translate(-253.367 -289.2)" fill="#f0c726"/>
  </g>
  <path id="XMLID_39_" d="M231,287.8a.2.2,0,0,1,.144.05Z" transform="translate(-216.498 -276.43)" fill="#fff"/>
  <g id="XMLID_37_" transform="translate(14.481 11.345)">
    <path id="XMLID_38_" d="M230.826,287.494h-.006l-.144-.05c-.013-.006-.019-.013-.013-.025s.013-.019.025-.019a.246.246,0,0,1,.163.056.019.019,0,0,1,0,.025c-.013.013-.019.013-.025.013Z" transform="translate(-230.661 -287.4)" fill="#f0c726"/>
  </g>
  <path id="XMLID_36_" d="M234.8,289a.42.42,0,0,1,.169.05Z" transform="translate(-220.059 -277.555)" fill="#fff"/>
  <g id="XMLID_34_" transform="translate(14.722 11.419)">
    <path id="XMLID_35_" d="M234.695,288.68h0l-.176-.05c-.013-.006-.019-.013-.019-.025.006-.044.138-.006.207.031.013.006.013.019.013.031s-.019.013-.025.013Z" transform="translate(-234.5 -288.585)" fill="#f0c726"/>
  </g>
  <path id="XMLID_33_" d="M246.37,290.5c-.05,0-.144,0-.17.025Z" transform="translate(-230.743 -278.961)" fill="#fff"/>
  <g id="XMLID_31_" transform="translate(15.429 11.52)">
    <path id="XMLID_32_" d="M245.78,290.263c-.006,0-.019-.006-.019-.013s0-.019.006-.025c.025-.025.094-.025.188-.025.013,0,.025.006.025.019s-.006.025-.019.025l-.182.019Z" transform="translate(-245.759 -290.2)" fill="#f0c726"/>
  </g>
  <path id="XMLID_30_" d="M242.07,290.219a.2.2,0,0,0-.17,0Z" transform="translate(-226.713 -278.68)" fill="#fff"/>
  <g id="XMLID_28_" transform="translate(15.162 11.49)">
    <path id="XMLID_29_" d="M241.695,289.789h-.169c-.013,0-.019-.006-.025-.019s0-.019.013-.025a.17.17,0,0,1,.2.006.038.038,0,0,1,.006.025.048.048,0,0,1-.025.013Z" transform="translate(-241.5 -289.715)" fill="#f0c726"/>
  </g>
  <path id="XMLID_27_" d="M273.244,287.8a.212.212,0,0,0-.144.05Z" transform="translate(-255.955 -276.43)" fill="#fff"/>
  <g id="XMLID_25_" transform="translate(17.116 11.345)">
    <path id="XMLID_26_" d="M272.657,287.494c-.006,0-.013-.006-.019-.013a.015.015,0,0,1,.006-.025.284.284,0,0,1,.163-.057c.013,0,.019.006.025.019a.033.033,0,0,1-.013.025l-.144.05Z" transform="translate(-272.634 -287.4)" fill="#f0c726"/>
  </g>
  <path id="XMLID_24_" d="M268.969,289a.42.42,0,0,0-.169.05Z" transform="translate(-251.924 -277.555)" fill="#fff"/>
  <g id="XMLID_22_" transform="translate(16.854 11.422)">
    <path id="XMLID_23_" d="M268.482,288.721c-.006,0-.019-.006-.019-.013a.023.023,0,0,1,.013-.031c.075-.038.2-.069.207-.031,0,.013-.006.019-.019.025l-.182.05Z" transform="translate(-268.461 -288.629)" fill="#f0c726"/>
  </g>
  <path id="XMLID_21_" d="M257.4,290.5c.05,0,.144,0,.169.025Z" transform="translate(-241.24 -278.961)" fill="#fff"/>
  <g id="XMLID_19_" transform="translate(16.141 11.514)">
    <path id="XMLID_20_" d="M257.295,290.169h0l-.176-.025c-.013,0-.019-.013-.019-.025s.013-.019.025-.019a.427.427,0,0,1,.188.025c.006.006.013.019.006.025a.023.023,0,0,1-.025.019Z" transform="translate(-257.1 -290.1)" fill="#f0c726"/>
  </g>
  <path id="XMLID_18_" d="M261.7,290.219a.2.2,0,0,1,.169,0Z" transform="translate(-245.27 -278.68)" fill="#fff"/>
  <g id="XMLID_16_" transform="translate(16.415 11.494)">
    <path id="XMLID_17_" d="M261.65,289.858h-.169c-.006,0-.019-.006-.019-.013s0-.019.006-.025a.193.193,0,0,1,.2-.006.033.033,0,0,1,.013.025.058.058,0,0,1-.031.019Z" transform="translate(-261.459 -289.788)" fill="#f0c726"/>
  </g>
  <path id="XMLID_15_" d="M249.415,209.813a.372.372,0,0,0-.257-.245.664.664,0,0,0-.195-.013c-.075-.019-.138.057-.163.107.075.05.094.107.132.126.075.025.113,0,.188-.069a.184.184,0,0,1,.3.094Z" transform="translate(-233.18 -203.096)" fill="#f0c726"/>
  <g id="XMLID_11_" transform="translate(15.614 6.441)">
    <path id="XMLID_12_" d="M248.895,209.576a.183.183,0,0,1-.056-.013c-.025-.006-.038-.025-.057-.05a.5.5,0,0,0-.082-.075c.013-.05.063-.138.144-.138l.063.006a.418.418,0,0,1,.163.013.36.36,0,0,1,.245.207c-.094-.069-.22-.1-.283-.038s-.088.088-.138.088Zm-.025-.239a.176.176,0,0,0-.144.1.168.168,0,0,1,.082.063c.019.019.025.031.044.038.063.019.094.006.169-.069a.2.2,0,0,1,.232-.013.36.36,0,0,0-.188-.107.386.386,0,0,0-.119-.013Z" transform="translate(-248.7 -209.3)" fill="#f0c726"/>
  </g>
  <path id="XMLID_10_" d="M250.638,210.7a.038.038,0,0,0,0,.075.038.038,0,0,0,0-.075Z" transform="translate(-234.867 -204.171)" fill="#fff"/>
  <g id="XMLID_8_" transform="translate(15.701 6.506)">
    <path id="XMLID_9_" d="M250.169,210.455a.07.07,0,0,1-.069-.069c0-.082.138-.082.138,0a.07.07,0,0,1-.069.069Z" transform="translate(-250.1 -210.325)" fill="#fff"/>
  </g>
  <path id="XMLID_7_" d="M248.9,238.063V239.6a1.716,1.716,0,0,1-.3.257,1.485,1.485,0,0,1-.3-.257v-1.544a1.142,1.142,0,0,0,.3-.157,1,1,0,0,0,.3.163Z" transform="translate(-232.712 -229.663)" fill="#fff"/>
</svg>
